<svg width="116" height="34" viewBox="0 0 116 34" fill="none" xmlns="http://www.w3.org/2000/svg">
<path d="M39.4735 11.6078C39.7907 11.6078 40.052 11.7197 40.2572 11.9437C40.4812 12.149 40.5933 12.4103 40.5933 12.7275V25.0733C40.5933 25.3905 40.4812 25.6612 40.2572 25.8852C40.052 26.1092 39.7907 26.2211 39.4735 26.2211C39.1376 26.2211 38.8669 26.1092 38.6617 25.8852C38.4562 25.6612 38.3537 25.3905 38.3537 25.0733V22.4138L38.8855 22.3577C38.8855 22.7684 38.7456 23.2163 38.4656 23.7016C38.1857 24.1869 37.8031 24.6441 37.3178 25.0733C36.8325 25.4838 36.2541 25.8291 35.5822 26.1092C34.929 26.3705 34.2197 26.5009 33.4545 26.5009C32.1855 26.5009 31.0469 26.1744 30.0392 25.5211C29.0314 24.8493 28.2288 23.9441 27.6316 22.8057C27.0531 21.6672 26.7639 20.3702 26.7639 18.9145C26.7639 17.44 27.0531 16.1428 27.6316 15.0231C28.2288 13.8847 29.0314 12.9982 30.0392 12.3636C31.0469 11.7104 32.1667 11.3838 33.3986 11.3838C34.2011 11.3838 34.9475 11.5144 35.6381 11.7757C36.3287 12.037 36.9259 12.3916 37.4298 12.8395C37.9524 13.2874 38.3537 13.782 38.6336 14.3232C38.9322 14.8645 39.0816 15.4057 39.0816 15.947L38.3537 15.779V12.7275C38.3537 12.4103 38.4562 12.149 38.6617 11.9437C38.8669 11.7197 39.1376 11.6078 39.4735 11.6078ZM33.7064 24.4294C34.6397 24.4294 35.4608 24.1869 36.1701 23.7016C36.898 23.2163 37.4579 22.563 37.8498 21.742C38.2603 20.902 38.4656 19.9595 38.4656 18.9145C38.4656 17.888 38.2603 16.9641 37.8498 16.1428C37.4579 15.3031 36.898 14.6499 36.1701 14.1833C35.4608 13.698 34.6397 13.4554 33.7064 13.4554C32.7921 13.4554 31.9708 13.6887 31.243 14.1553C30.5337 14.6219 29.9739 15.2657 29.5632 16.087C29.1527 16.9082 28.9475 17.8507 28.9475 18.9145C28.9475 19.9595 29.1433 20.902 29.5353 21.742C29.9458 22.563 30.5057 23.2163 31.215 23.7016C31.9429 24.1869 32.7733 24.4294 33.7064 24.4294ZM55.5497 11.6637C55.8671 11.6637 56.1284 11.7757 56.3336 11.9997C56.5576 12.205 56.6695 12.4663 56.6695 12.7835V30.6723C56.6695 30.9896 56.5576 31.2601 56.3336 31.4841C56.1284 31.7081 55.8671 31.82 55.5497 31.82C55.2138 31.82 54.9431 31.7081 54.7379 31.4841C54.5326 31.2601 54.4299 30.9896 54.4299 30.6723V22.4138L54.9619 22.2179C54.9619 22.6657 54.8218 23.1417 54.542 23.6455C54.2619 24.1308 53.8794 24.588 53.394 25.0173C52.9089 25.4465 52.3303 25.8012 51.6584 26.0811C51.0052 26.3611 50.2961 26.5009 49.5309 26.5009C48.2804 26.5009 47.142 26.1744 46.1155 25.5211C45.1076 24.8681 44.3052 23.9722 43.7079 22.8337C43.1293 21.6953 42.8401 20.3981 42.8401 18.9424C42.8401 17.4679 43.1293 16.1616 43.7079 15.0231C44.3052 13.8847 45.1076 12.9982 46.1155 12.3636C47.1233 11.7104 48.2431 11.3838 49.4748 11.3838C50.2588 11.3838 50.996 11.5144 51.6864 11.7757C52.3769 12.037 52.9742 12.3916 53.4782 12.8395C54.0006 13.2874 54.4113 13.782 54.7099 14.3232C55.0085 14.8645 55.1578 15.4057 55.1578 15.947L54.4299 15.779V12.7835C54.4299 12.4663 54.5326 12.205 54.7379 11.9997C54.9431 11.7757 55.2138 11.6637 55.5497 11.6637ZM49.7828 24.4294C50.7159 24.4294 51.5372 24.1961 52.2463 23.7295C52.9742 23.2444 53.5341 22.5911 53.926 21.7699C54.3365 20.9301 54.542 19.9876 54.542 18.9424C54.542 17.8786 54.3365 16.9361 53.926 16.1149C53.5341 15.2937 52.9742 14.6499 52.2463 14.1833C51.5372 13.698 50.7159 13.4554 49.7828 13.4554C48.8683 13.4554 48.047 13.698 47.3192 14.1833C46.61 14.6499 46.0501 15.2937 45.6396 16.1149C45.2289 16.9361 45.0237 17.8786 45.0237 18.9424C45.0237 19.9689 45.2289 20.902 45.6396 21.742C46.0501 22.563 46.61 23.2163 47.3192 23.7016C48.047 24.1869 48.8683 24.4294 49.7828 24.4294ZM70.5342 11.7477C70.8701 11.7477 71.1408 11.8597 71.346 12.0837C71.5513 12.2889 71.654 12.5502 71.654 12.8675V20.51C71.654 22.395 71.122 23.8601 70.0583 24.9054C69.0132 25.9318 67.5481 26.4451 65.6631 26.4451C63.7967 26.4451 62.3318 25.9318 61.268 24.9054C60.2228 23.8601 59.7002 22.395 59.7002 20.51V12.8675C59.7002 12.5502 59.8029 12.2889 60.0081 12.0837C60.2321 11.8597 60.5026 11.7477 60.82 11.7477C61.1559 11.7477 61.4266 11.8597 61.6318 12.0837C61.8371 12.2889 61.9398 12.5502 61.9398 12.8675V20.51C61.9398 21.7793 62.2664 22.7403 62.9196 23.3936C63.5729 24.0468 64.4873 24.3734 65.6631 24.3734C66.8763 24.3734 67.8001 24.0468 68.4346 23.3936C69.0878 22.7403 69.4144 21.7793 69.4144 20.51V12.8675C69.4144 12.5502 69.5171 12.2889 69.7224 12.0837C69.9464 11.8597 70.217 11.7477 70.5342 11.7477ZM86.6088 11.6078C86.926 11.6078 87.1873 11.7197 87.3925 11.9437C87.6165 12.149 87.7285 12.4103 87.7285 12.7275V25.0733C87.7285 25.3905 87.6165 25.6612 87.3925 25.8852C87.1873 26.1092 86.926 26.2211 86.6088 26.2211C86.2727 26.2211 86.0022 26.1092 85.797 25.8852C85.5915 25.6612 85.489 25.3905 85.489 25.0733V22.4138L86.0208 22.3577C86.0208 22.7684 85.8809 23.2163 85.6009 23.7016C85.321 24.1869 84.9384 24.6441 84.4531 25.0733C83.9678 25.4838 83.3894 25.8291 82.7175 26.1092C82.0643 26.3705 81.355 26.5009 80.5898 26.5009C79.3208 26.5009 78.1822 26.1744 77.1745 25.5211C76.1667 24.8493 75.3641 23.9441 74.7669 22.8057C74.1884 21.6672 73.8992 20.3702 73.8992 18.9145C73.8992 17.44 74.1884 16.1428 74.7669 15.0231C75.3641 13.8847 76.1667 12.9982 77.1745 12.3636C78.1822 11.7104 79.302 11.3838 80.5339 11.3838C81.3364 11.3838 82.0828 11.5144 82.7734 11.7757C83.464 12.037 84.0612 12.3916 84.5651 12.8395C85.0877 13.2874 85.489 13.782 85.7689 14.3232C86.0675 14.8645 86.2169 15.4057 86.2169 15.947L85.489 15.779V12.7275C85.489 12.4103 85.5915 12.149 85.797 11.9437C86.0022 11.7197 86.2727 11.6078 86.6088 11.6078ZM80.8417 24.4294C81.775 24.4294 82.5961 24.1869 83.3054 23.7016C84.0333 23.2163 84.5932 22.563 84.9851 21.742C85.3956 20.902 85.6009 19.9595 85.6009 18.9145C85.6009 17.888 85.3956 16.9641 84.9851 16.1428C84.5932 15.3031 84.0333 14.6499 83.3054 14.1833C82.5961 13.698 81.775 13.4554 80.8417 13.4554C79.9273 13.4554 79.1061 13.6887 78.3783 14.1553C77.669 14.6219 77.1092 15.2657 76.6985 16.087C76.288 16.9082 76.0828 17.8507 76.0828 18.9145C76.0828 19.9595 76.2786 20.902 76.6706 21.742C77.0811 22.563 77.641 23.2163 78.3503 23.7016C79.0782 24.1869 79.9086 24.4294 80.8417 24.4294Z" fill="white"/>
<mask id="mask0_554_547" style="mask-type:luminance" maskUnits="userSpaceOnUse" x="0" y="2" width="21" height="32">
<path d="M20.8829 2.04224H0V33.9367H20.8829V2.04224Z" fill="white"/>
</mask>
<g mask="url(#mask0_554_547)">
<path fill-rule="evenodd" clip-rule="evenodd" d="M17.0251 23.4951L20.5576 26.6826C21.2441 27.3008 20.7705 28.4408 19.8512 28.3927L16.186 28.2041C15.604 28.176 15.1262 28.6537 15.1543 29.2357L15.343 32.9008C15.3912 33.8242 14.2511 34.2938 13.6329 33.6075L11.1761 30.8857C10.7867 30.452 10.1082 30.452 9.71883 30.8857L7.26201 33.6075C6.64379 34.2938 5.50371 33.8202 5.55188 32.9008L5.74056 29.2357C5.76865 28.6537 5.29095 28.176 4.70885 28.2041L1.04371 28.3927C0.120394 28.4408 -0.349292 27.3008 0.337172 26.6826L3.86985 23.4951" fill="#2ED9FF"/>
<path fill-rule="evenodd" clip-rule="evenodd" d="M17.0249 23.4951L20.5576 26.6826C21.244 27.3008 20.7703 28.4408 19.851 28.3927L16.1859 28.2041C15.6038 28.176 15.1261 28.6537 15.1542 29.2357L15.3428 32.9008C15.391 33.8242 14.2509 34.2938 13.6327 33.6075L11.1759 30.8857C10.7865 30.452 10.1081 30.452 9.71865 30.8857L7.26184 33.6075C6.64362 34.2938 5.50352 33.8202 5.5517 32.9008L5.74037 29.2357C5.76848 28.6537 5.29077 28.176 4.70868 28.2041L1.04352 28.3927C0.120211 28.4408 -0.349475 27.3008 0.336989 26.6826L3.86966 23.4951" fill="url(#paint0_radial_554_547)"/>
<path fill-rule="evenodd" clip-rule="evenodd" d="M3.86896 23.4951L0.336295 26.6826C-0.350169 27.3008 0.12353 28.4408 1.04283 28.3927L4.70798 28.2041C5.29006 28.176 5.76778 28.6537 5.73969 29.2357L5.55101 32.9008C5.50284 33.8242 6.64292 34.2938 7.26114 33.6075L9.71796 30.8857C10.1074 30.452 10.7858 30.452 11.1752 30.8857L13.632 33.6075C14.2502 34.2938 15.3903 33.8202 15.3421 32.9008L15.1535 29.2357C15.1254 28.6537 15.6031 28.176 16.1852 28.2041L19.8503 28.3927C20.7737 28.4408 21.2432 27.3008 20.5569 26.6826L17.0242 23.4951" fill="url(#paint1_radial_554_547)"/>
<path d="M18.0406 8.53806C16.744 5.96081 14.5521 3.80509 11.8063 2.37596C10.9512 1.93034 9.93556 1.93034 9.08049 2.37596C6.33464 3.80509 4.14277 5.96081 2.84613 8.53806C2.3403 9.54166 3.07494 10.7299 4.20299 10.7299H16.6878C17.8118 10.7299 18.5464 9.54567 18.0447 8.53806H18.0406Z" fill="url(#paint2_linear_554_547)"/>
<path d="M11.5415 4.39931C10.8631 3.99385 10.016 3.99385 9.33757 4.39931C5.68447 6.57512 3.23569 10.5614 3.23569 15.1178C3.23569 20.1198 6.18225 24.4352 10.4375 26.4224C14.6888 24.4352 17.6394 20.1237 17.6394 15.1178C17.6394 10.5574 15.1906 6.5711 11.5375 4.39931H11.5415Z" fill="url(#paint3_linear_554_547)"/>
<path d="M14.5403 24.1903C16.6398 24.3188 18.4423 22.7651 18.5708 20.7138C18.6991 18.6665 17.0975 16.9001 15.0019 16.7677C12.9024 16.6392 11.0999 18.1928 10.9715 20.2442C10.843 22.2915 12.4448 24.0579 14.5403 24.1903Z" fill="#2ED9FF"/>
<path d="M5.92928 24.1903C8.02882 24.3188 9.83129 22.7651 9.95975 20.7138C10.0882 18.6665 8.48646 16.9001 6.39095 16.7677C4.29142 16.6392 2.48895 18.1928 2.36049 20.2442C2.23203 22.2915 3.83376 24.0579 5.92928 24.1903Z" fill="#2ED9FF"/>
<path d="M5.98542 23.2503C7.55103 23.3467 8.89988 22.1865 8.99623 20.653C9.09257 19.1235 7.89628 17.8029 6.33067 17.7065C4.76504 17.6102 3.41621 18.7703 3.31986 20.3038C3.22352 21.8333 4.41981 23.1539 5.98542 23.2503Z" fill="#1A1A1A"/>
<path d="M4.94579 20.5414C5.40343 20.5695 5.79683 20.2322 5.82494 19.7826C5.85303 19.337 5.50379 18.9516 5.04614 18.9235C4.5885 18.8954 4.19508 19.2326 4.16699 19.6823C4.1389 20.1278 4.48814 20.5133 4.94579 20.5414Z" fill="white"/>
<path d="M14.6004 23.2503C16.166 23.3467 17.5149 22.1865 17.6112 20.653C17.7075 19.1235 16.5113 17.8029 14.9457 17.7065C13.38 17.6102 12.0312 18.7703 11.9348 20.3038C11.8385 21.8333 13.0348 23.1539 14.6004 23.2503Z" fill="#1A1A1A"/>
<path d="M13.5568 20.5414C14.0145 20.5695 14.4079 20.2322 14.4359 19.7826C14.4641 19.337 14.1148 18.9516 13.6572 18.9235C13.1995 18.8954 12.8061 19.2326 12.778 19.6823C12.7499 20.1278 13.0992 20.5133 13.5568 20.5414Z" fill="white"/>
</g>
<path d="M91.0568 12V3.27273H94.108C94.7159 3.27273 95.2173 3.37784 95.6122 3.58807C96.0071 3.79545 96.3011 4.07528 96.4943 4.42756C96.6875 4.77699 96.7841 5.16477 96.7841 5.59091C96.7841 5.96591 96.7173 6.27557 96.5838 6.51989C96.4531 6.7642 96.2798 6.95739 96.0639 7.09943C95.8509 7.24148 95.6193 7.34659 95.3693 7.41477V7.5C95.6364 7.51705 95.9048 7.6108 96.1747 7.78125C96.4446 7.9517 96.6705 8.19602 96.8523 8.5142C97.0341 8.83239 97.125 9.22159 97.125 9.68182C97.125 10.1193 97.0256 10.5128 96.8267 10.8622C96.6278 11.2116 96.3139 11.4886 95.8849 11.6932C95.456 11.8977 94.8977 12 94.2102 12H91.0568ZM92.1136 11.0625H94.2102C94.9006 11.0625 95.3906 10.929 95.6804 10.6619C95.973 10.392 96.1193 10.0653 96.1193 9.68182C96.1193 9.38636 96.044 9.11364 95.8935 8.86364C95.7429 8.6108 95.5284 8.40909 95.25 8.25852C94.9716 8.10511 94.642 8.02841 94.2614 8.02841H92.1136V11.0625ZM92.1136 7.10795H94.0739C94.392 7.10795 94.679 7.04545 94.9347 6.92045C95.1932 6.79545 95.3977 6.61932 95.5483 6.39205C95.7017 6.16477 95.7784 5.89773 95.7784 5.59091C95.7784 5.20739 95.6449 4.8821 95.3778 4.61506C95.1108 4.34517 94.6875 4.21023 94.108 4.21023H92.1136V7.10795ZM101.469 12.1364C100.839 12.1364 100.295 11.9972 99.8374 11.7188C99.3828 11.4375 99.032 11.0455 98.7848 10.5426C98.5405 10.0369 98.4183 9.44886 98.4183 8.77841C98.4183 8.10795 98.5405 7.51705 98.7848 7.00568C99.032 6.49148 99.3757 6.09091 99.8161 5.80398C100.259 5.5142 100.776 5.36932 101.367 5.36932C101.708 5.36932 102.045 5.42614 102.377 5.53977C102.71 5.65341 103.012 5.83807 103.285 6.09375C103.558 6.34659 103.775 6.68182 103.937 7.09943C104.099 7.51705 104.18 8.03125 104.18 8.64205V9.06818H99.1342V8.19886H103.157C103.157 7.82955 103.083 7.5 102.935 7.21023C102.79 6.92045 102.583 6.69176 102.313 6.52415C102.046 6.35653 101.731 6.27273 101.367 6.27273C100.967 6.27273 100.62 6.37216 100.327 6.57102C100.038 6.76705 99.8146 7.02273 99.6584 7.33807C99.5021 7.65341 99.424 7.99148 99.424 8.35227V8.93182C99.424 9.42614 99.5092 9.84517 99.6797 10.1889C99.853 10.5298 100.093 10.7898 100.4 10.9688C100.707 11.1449 101.063 11.233 101.469 11.233C101.734 11.233 101.972 11.196 102.185 11.1222C102.401 11.0455 102.587 10.9318 102.744 10.7812C102.9 10.6278 103.021 10.4375 103.106 10.2102L104.077 10.483C103.975 10.8125 103.803 11.1023 103.562 11.3523C103.32 11.5994 103.022 11.7926 102.667 11.9318C102.312 12.0682 101.913 12.1364 101.469 12.1364ZM108.556 5.45455V6.30682H105.164V5.45455H108.556ZM106.153 3.88636H107.158V10.125C107.158 10.4091 107.2 10.6222 107.282 10.7642C107.367 10.9034 107.475 10.9972 107.606 11.0455C107.739 11.0909 107.88 11.1136 108.028 11.1136C108.138 11.1136 108.229 11.108 108.3 11.0966C108.371 11.0824 108.428 11.071 108.471 11.0625L108.675 11.9659C108.607 11.9915 108.512 12.017 108.39 12.0426C108.268 12.071 108.113 12.0852 107.925 12.0852C107.641 12.0852 107.363 12.0241 107.09 11.902C106.82 11.7798 106.596 11.5938 106.417 11.3438C106.241 11.0938 106.153 10.7784 106.153 10.3977V3.88636ZM111.995 12.1534C111.58 12.1534 111.204 12.0753 110.866 11.919C110.528 11.7599 110.259 11.5312 110.06 11.233C109.862 10.9318 109.762 10.5682 109.762 10.142C109.762 9.76705 109.836 9.46307 109.984 9.23011C110.131 8.99432 110.329 8.80966 110.576 8.67614C110.823 8.54261 111.096 8.44318 111.394 8.37784C111.695 8.30966 111.998 8.25568 112.302 8.21591C112.7 8.16477 113.022 8.12642 113.269 8.10085C113.519 8.07244 113.701 8.02557 113.815 7.96023C113.931 7.89489 113.989 7.78125 113.989 7.61932V7.58523C113.989 7.16477 113.874 6.83807 113.644 6.60511C113.417 6.37216 113.072 6.25568 112.609 6.25568C112.129 6.25568 111.752 6.3608 111.479 6.57102C111.207 6.78125 111.015 7.00568 110.904 7.24432L109.95 6.90341C110.12 6.50568 110.347 6.19602 110.631 5.97443C110.918 5.75 111.231 5.59375 111.569 5.50568C111.91 5.41477 112.245 5.36932 112.575 5.36932C112.785 5.36932 113.026 5.39489 113.299 5.44602C113.575 5.49432 113.84 5.59517 114.096 5.74858C114.354 5.90199 114.569 6.13352 114.739 6.44318C114.91 6.75284 114.995 7.16761 114.995 7.6875V12H113.989V11.1136H113.938C113.87 11.2557 113.756 11.4077 113.597 11.5696C113.438 11.7315 113.227 11.8693 112.962 11.983C112.698 12.0966 112.376 12.1534 111.995 12.1534ZM112.148 11.25C112.546 11.25 112.881 11.1719 113.154 11.0156C113.43 10.8594 113.637 10.6577 113.776 10.4105C113.918 10.1634 113.989 9.90341 113.989 9.63068V8.71023C113.947 8.76136 113.853 8.80824 113.708 8.85085C113.566 8.89062 113.401 8.92614 113.214 8.95739C113.029 8.9858 112.849 9.01136 112.673 9.03409C112.499 9.05398 112.359 9.07102 112.251 9.08523C111.989 9.11932 111.745 9.17472 111.518 9.25142C111.293 9.32528 111.112 9.4375 110.972 9.58807C110.836 9.7358 110.768 9.9375 110.768 10.1932C110.768 10.5426 110.897 10.8068 111.156 10.9858C111.417 11.1619 111.748 11.25 112.148 11.25Z" fill="#57D7F3"/>
<defs>
<radialGradient id="paint0_radial_554_547" cx="0" cy="0" r="1" gradientUnits="userSpaceOnUse" gradientTransform="translate(16.7856 21.8677) rotate(-11.3099) scale(3.36971 3.77139)">
<stop stop-color="#1292AF"/>
<stop offset="1" stop-color="#1292AF" stop-opacity="0"/>
</radialGradient>
<radialGradient id="paint1_radial_554_547" cx="0" cy="0" r="1" gradientUnits="userSpaceOnUse" gradientTransform="translate(4.10827 21.8677) rotate(-168.69) scale(3.36971 3.77139)">
<stop stop-color="#1292AF"/>
<stop offset="1" stop-color="#1292AF" stop-opacity="0"/>
</radialGradient>
<linearGradient id="paint2_linear_554_547" x1="10.4414" y1="10.7259" x2="10.4414" y2="2.04275" gradientUnits="userSpaceOnUse">
<stop stop-color="#1292AF"/>
<stop offset="1" stop-color="#2ED9FF"/>
</linearGradient>
<linearGradient id="paint3_linear_554_547" x1="8.59116" y1="17.5064" x2="5.94775" y2="1.51376" gradientUnits="userSpaceOnUse">
<stop offset="0.151877" stop-color="#2ED9FF"/>
<stop offset="1" stop-color="#95ECFF"/>
</linearGradient>
</defs>
</svg>
