<svg xmlns="http://www.w3.org/2000/svg" width="34" height="34" viewBox="-7 0 34 34" fill="none">


<g mask="url(#mask0_554_547)">
<path fill-rule="evenodd" clip-rule="evenodd" d="M17.0251 23.4951L20.5576 26.6826C21.2441 27.3008 20.7705 28.4408 19.8512 28.3927L16.186 28.2041C15.604 28.176 15.1262 28.6537 15.1543 29.2357L15.343 32.9008C15.3912 33.8242 14.2511 34.2938 13.6329 33.6075L11.1761 30.8857C10.7867 30.452 10.1082 30.452 9.71883 30.8857L7.26201 33.6075C6.64379 34.2938 5.50371 33.8202 5.55188 32.9008L5.74056 29.2357C5.76865 28.6537 5.29095 28.176 4.70885 28.2041L1.04371 28.3927C0.120394 28.4408 -0.349292 27.3008 0.337172 26.6826L3.86985 23.4951" fill="#2ED9FF"/>
<path fill-rule="evenodd" clip-rule="evenodd" d="M17.0249 23.4951L20.5576 26.6826C21.244 27.3008 20.7703 28.4408 19.851 28.3927L16.1859 28.2041C15.6038 28.176 15.1261 28.6537 15.1542 29.2357L15.3428 32.9008C15.391 33.8242 14.2509 34.2938 13.6327 33.6075L11.1759 30.8857C10.7865 30.452 10.1081 30.452 9.71865 30.8857L7.26184 33.6075C6.64362 34.2938 5.50352 33.8202 5.5517 32.9008L5.74037 29.2357C5.76848 28.6537 5.29077 28.176 4.70868 28.2041L1.04352 28.3927C0.120211 28.4408 -0.349475 27.3008 0.336989 26.6826L3.86966 23.4951" fill="url(#paint0_radial_554_547)"/>
<path fill-rule="evenodd" clip-rule="evenodd" d="M3.86896 23.4951L0.336295 26.6826C-0.350169 27.3008 0.12353 28.4408 1.04283 28.3927L4.70798 28.2041C5.29006 28.176 5.76778 28.6537 5.73969 29.2357L5.55101 32.9008C5.50284 33.8242 6.64292 34.2938 7.26114 33.6075L9.71796 30.8857C10.1074 30.452 10.7858 30.452 11.1752 30.8857L13.632 33.6075C14.2502 34.2938 15.3903 33.8202 15.3421 32.9008L15.1535 29.2357C15.1254 28.6537 15.6031 28.176 16.1852 28.2041L19.8503 28.3927C20.7737 28.4408 21.2432 27.3008 20.5569 26.6826L17.0242 23.4951" fill="url(#paint1_radial_554_547)"/>
<path d="M18.0406 8.53806C16.744 5.96081 14.5521 3.80509 11.8063 2.37596C10.9512 1.93034 9.93556 1.93034 9.08049 2.37596C6.33464 3.80509 4.14277 5.96081 2.84613 8.53806C2.3403 9.54166 3.07494 10.7299 4.20299 10.7299H16.6878C17.8118 10.7299 18.5464 9.54567 18.0447 8.53806H18.0406Z" fill="url(#paint2_linear_554_547)"/>
<path d="M11.5415 4.39931C10.8631 3.99385 10.016 3.99385 9.33757 4.39931C5.68447 6.57512 3.23569 10.5614 3.23569 15.1178C3.23569 20.1198 6.18225 24.4352 10.4375 26.4224C14.6888 24.4352 17.6394 20.1237 17.6394 15.1178C17.6394 10.5574 15.1906 6.5711 11.5375 4.39931H11.5415Z" fill="url(#paint3_linear_554_547)"/>
<path d="M14.5403 24.1903C16.6398 24.3188 18.4423 22.7651 18.5708 20.7138C18.6991 18.6665 17.0975 16.9001 15.0019 16.7677C12.9024 16.6392 11.0999 18.1928 10.9715 20.2442C10.843 22.2915 12.4448 24.0579 14.5403 24.1903Z" fill="#2ED9FF"/>
<path d="M5.92928 24.1903C8.02882 24.3188 9.83129 22.7651 9.95975 20.7138C10.0882 18.6665 8.48646 16.9001 6.39095 16.7677C4.29142 16.6392 2.48895 18.1928 2.36049 20.2442C2.23203 22.2915 3.83376 24.0579 5.92928 24.1903Z" fill="#2ED9FF"/>
<path d="M5.98542 23.2503C7.55103 23.3467 8.89988 22.1865 8.99623 20.653C9.09257 19.1235 7.89628 17.8029 6.33067 17.7065C4.76504 17.6102 3.41621 18.7703 3.31986 20.3038C3.22352 21.8333 4.41981 23.1539 5.98542 23.2503Z" fill="#1A1A1A"/>
<path d="M4.94579 20.5414C5.40343 20.5695 5.79683 20.2322 5.82494 19.7826C5.85303 19.337 5.50379 18.9516 5.04614 18.9235C4.5885 18.8954 4.19508 19.2326 4.16699 19.6823C4.1389 20.1278 4.48814 20.5133 4.94579 20.5414Z" fill="white"/>
<path d="M14.6004 23.2503C16.166 23.3467 17.5149 22.1865 17.6112 20.653C17.7075 19.1235 16.5113 17.8029 14.9457 17.7065C13.38 17.6102 12.0312 18.7703 11.9348 20.3038C11.8385 21.8333 13.0348 23.1539 14.6004 23.2503Z" fill="#1A1A1A"/>
<path d="M13.5568 20.5414C14.0145 20.5695 14.4079 20.2322 14.4359 19.7826C14.4641 19.337 14.1148 18.9516 13.6572 18.9235C13.1995 18.8954 12.8061 19.2326 12.778 19.6823C12.7499 20.1278 13.0992 20.5133 13.5568 20.5414Z" fill="white"/>
</g>

<defs>
<radialGradient id="paint0_radial_554_547" cx="0" cy="0" r="1" gradientUnits="userSpaceOnUse" gradientTransform="translate(16.7856 21.8677) rotate(-11.3099) scale(3.36971 3.77139)">
<stop stop-color="#1292AF"/>
<stop offset="1" stop-color="#1292AF" stop-opacity="0"/>
</radialGradient>
<radialGradient id="paint1_radial_554_547" cx="0" cy="0" r="1" gradientUnits="userSpaceOnUse" gradientTransform="translate(4.10827 21.8677) rotate(-168.69) scale(3.36971 3.77139)">
<stop stop-color="#1292AF"/>
<stop offset="1" stop-color="#1292AF" stop-opacity="0"/>
</radialGradient>
<linearGradient id="paint2_linear_554_547" x1="10.4414" y1="10.7259" x2="10.4414" y2="2.04275" gradientUnits="userSpaceOnUse">
<stop stop-color="#1292AF"/>
<stop offset="1" stop-color="#2ED9FF"/>
</linearGradient>
<linearGradient id="paint3_linear_554_547" x1="8.59116" y1="17.5064" x2="5.94775" y2="1.51376" gradientUnits="userSpaceOnUse">
<stop offset="0.151877" stop-color="#2ED9FF"/>
<stop offset="1" stop-color="#95ECFF"/>
</linearGradient>
</defs>
</svg>