<svg id="Layer_1" data-name="Layer 1" xmlns="http://www.w3.org/2000/svg" viewBox="0 0 200 200"><defs><style>.cls-1{fill:#00cba8;}.cls-2{fill:#0db1f9;}</style></defs><path class="cls-1" d="M65.08,64.64h66.41a69.47,69.47,0,0,1,22.14,3.6C153.94,30.51,123.19,0,85.13,0H18.72A18.72,18.72,0,0,0,0,18.72v97.92a18.72,18.72,0,0,0,18.72,18.72H46.36v-52A18.72,18.72,0,0,1,65.08,64.64Z"/><path class="cls-2" d="M153.63,68.24c0,.79,0,1.59-.06,2.39A67.67,67.67,0,0,1,86,135.36H46.36v45.92A18.72,18.72,0,0,0,65.08,200h67.24A67.59,67.59,0,0,0,153.63,68.24Z"/></svg>