<svg width="64" height="64" viewBox="0 0 64 64" fill="none" xmlns="http://www.w3.org/2000/svg">
<path d="M31.9994 1.2159H32.0006C49.0019 1.2159 62.7841 14.9981 62.7841 31.9994V32.0006C62.7841 49.0019 49.0019 62.7841 32.0006 62.7841H31.9994C14.9981 62.7841 1.2159 49.0019 1.2159 32.0006V31.9994C1.2159 14.9981 14.9981 1.2159 31.9994 1.2159Z" fill="#111111" stroke="#111111" stroke-width="2.4318"/>
<path d="M32.0006 0H31.9994C14.3266 0 0 14.3266 0 31.9994V32.0006C0 49.6734 14.3266 64 31.9994 64H32.0006C49.6734 64 64 49.6734 64 32.0006V31.9994C64 14.3266 49.6734 0 32.0006 0Z" fill="url(#paint0_radial_805_660)" fill-opacity="0.7"/>
<path d="M31.9994 1.23129H32.0006C48.9934 1.23129 62.7687 15.0066 62.7687 31.9994V32.0006C62.7687 48.9934 48.9934 62.7687 32.0006 62.7687H31.9994C15.0066 62.7687 1.23129 48.9934 1.23129 32.0006V31.9994C1.23129 15.0066 15.0066 1.23129 31.9994 1.23129Z" stroke="url(#paint1_linear_805_660)" stroke-width="2.46258"/>
<path fill-rule="evenodd" clip-rule="evenodd" d="M24.998 15.4923H23.5653L22.6365 16.5831L11.2233 29.9888L9.51166 31.9992L11.2233 34.0097L22.6365 47.4154L23.5653 48.5063H24.998H45.5458H48.6471V45.405V36.8826H42.4445V42.3036H31.7804L38.9378 34.028L40.6925 31.9992L38.9378 29.9705L31.7804 21.6949H42.4445V27.1159H48.6471V18.5936V15.4923H45.5458H24.998ZM25.0164 23.3561L17.6578 31.9993L25.0164 40.6425L32.4918 31.9992L25.0164 23.3561Z" fill="white"/>
<defs>
<radialGradient id="paint0_radial_805_660" cx="0" cy="0" r="1" gradientUnits="userSpaceOnUse" gradientTransform="translate(32.0688 9.34482) rotate(90) scale(67.4699 47.492)">
<stop offset="0.03125" stop-color="#3A3A3A"/>
<stop offset="1" stop-color="#1C1C1C"/>
</radialGradient>
<linearGradient id="paint1_linear_805_660" x1="32" y1="-0.603779" x2="32" y2="64.6038" gradientUnits="userSpaceOnUse">
<stop stop-color="white"/>
<stop offset="1" stop-color="#111111"/>
</linearGradient>
</defs>
</svg>
