<svg width="56" height="64" viewBox="0 0 56 64" fill="none" xmlns="http://www.w3.org/2000/svg">
<path d="M43.1139 30.144C48.873 26.912 53.9958 23.968 53.9958 23.968L28.0638 9.50401V38.048C28.9865 37.728 31.3093 36.576 34.2048 35.072L43.1775 40.288V30.144H43.1139Z" fill="url(#paint0_linear_805_686)"/>
<path d="M28.0318 9.50401L2.06805 22.912C2.06805 22.912 24.7545 35.936 28.0318 37.024V9.50401Z" fill="url(#paint1_linear_805_686)"/>
<path d="M43.1137 40.256L27.9682 31.488L8.14536 43.008L28 54.56L47.8865 43.008V37.44L43.1137 40.256Z" fill="url(#paint2_linear_805_686)"/>
<path d="M19.8545 22.528V43.264L28.0318 48V27.296L19.8545 22.528Z" fill="url(#paint3_linear_805_686)"/>
<path d="M28.0638 27.296V48L36.2411 43.264V22.528L28.0638 27.296Z" fill="url(#paint4_linear_805_686)"/>
<path d="M15.6545 32.128L8.14536 36.48V43.008L20.3954 35.904L15.6545 32.128Z" fill="url(#paint5_linear_805_686)"/>
<path d="M16.0363 31.904L8.14536 36.48L0.190765 31.872L8.08172 27.296L16.0363 31.904Z" fill="url(#paint6_linear_805_686)"/>
<path d="M0 16.256V25.664L28.032 41.92V32.512L0 16.256Z" fill="url(#paint7_linear_805_686)"/>
<path d="M8.17732 36.48L0 31.68V47.68L28.032 63.936V54.528L8.20914 43.008L8.17732 36.48Z" fill="url(#paint8_linear_805_686)"/>
<path d="M28.032 0L0 16.256L8.17732 20.992L28.0002 9.472L43.1139 18.208L51.2912 13.472L28.032 0Z" fill="url(#paint9_linear_805_686)"/>
<path d="M19.8545 22.528L28.0318 27.264L36.1455 22.56L27.9682 17.824L19.8545 22.528Z" fill="url(#paint10_linear_805_686)"/>
<path d="M43.1141 18.24V40.256L51.2914 35.52V13.504L43.1141 18.24Z" fill="url(#paint11_linear_805_686)"/>
<path d="M27.968 32.512V41.92L47.7909 30.4V43.072L27.968 54.592V64L56 47.744V16.256L27.968 32.512Z" fill="url(#paint12_linear_805_686)"/>
<defs>
<linearGradient id="paint0_linear_805_686" x1="41.4648" y1="-8.35022" x2="40.5898" y2="41.5351" gradientUnits="userSpaceOnUse">
<stop stop-color="#0098A6"/>
<stop offset="1" stop-color="#002D4D"/>
</linearGradient>
<linearGradient id="paint1_linear_805_686" x1="15.05" y1="55.1312" x2="15.05" y2="-5.9427" gradientUnits="userSpaceOnUse">
<stop stop-color="#0098A6"/>
<stop offset="1" stop-color="#002D4D"/>
</linearGradient>
<linearGradient id="paint2_linear_805_686" x1="6.9569" y1="-0.0745609" x2="37.3716" y2="57.4683" gradientUnits="userSpaceOnUse">
<stop offset="0.27" stop-color="#0098A6"/>
<stop offset="1" stop-color="#002D4D"/>
</linearGradient>
<linearGradient id="paint3_linear_805_686" x1="27.6869" y1="15.0667" x2="20.9984" y2="50.7425" gradientUnits="userSpaceOnUse">
<stop stop-color="#0098A6"/>
<stop offset="1" stop-color="#002D4D"/>
</linearGradient>
<linearGradient id="paint4_linear_805_686" x1="32.1525" y1="-0.0141609" x2="32.1525" y2="48.0834" gradientUnits="userSpaceOnUse">
<stop stop-color="#0098A6"/>
<stop offset="1" stop-color="#002D4D"/>
</linearGradient>
<linearGradient id="paint5_linear_805_686" x1="34.798" y1="21.4944" x2="2.78139" y2="44.1586" gradientUnits="userSpaceOnUse">
<stop offset="0.27" stop-color="#0098A6"/>
<stop offset="1" stop-color="#002D4D"/>
</linearGradient>
<linearGradient id="paint6_linear_805_686" x1="-3.55502" y1="10.5841" x2="31.3148" y2="73.5273" gradientUnits="userSpaceOnUse">
<stop offset="0.27" stop-color="#0098A6"/>
<stop offset="1" stop-color="#002D4D"/>
</linearGradient>
<linearGradient id="paint7_linear_805_686" x1="-15.6552" y1="5.16709" x2="74.699" y2="77.186" gradientUnits="userSpaceOnUse">
<stop offset="0.088" stop-color="#26FFED"/>
<stop offset="0.39" stop-color="#18C4CD"/>
<stop offset="0.631" stop-color="#0B90B1"/>
<stop offset="0.869" stop-color="#0370A0"/>
<stop offset="0.994" stop-color="#006499"/>
</linearGradient>
<linearGradient id="paint8_linear_805_686" x1="-24.5677" y1="28.1088" x2="84.0708" y2="82.9474" gradientUnits="userSpaceOnUse">
<stop offset="0.098" stop-color="#26FFED"/>
<stop offset="0.381" stop-color="#18C4CD"/>
<stop offset="0.631" stop-color="#0B90B1"/>
<stop offset="0.869" stop-color="#0370A0"/>
<stop offset="0.993" stop-color="#006499"/>
</linearGradient>
<linearGradient id="paint9_linear_805_686" x1="33.8684" y1="-17.7568" x2="7.87137" y2="84.2089" gradientUnits="userSpaceOnUse">
<stop stop-color="#26FFED"/>
<stop offset="0.315" stop-color="#18C4CD"/>
<stop offset="0.631" stop-color="#0B90B1"/>
<stop offset="0.869" stop-color="#0370A0"/>
<stop offset="1" stop-color="#006499"/>
</linearGradient>
<linearGradient id="paint10_linear_805_686" x1="16.7292" y1="44.3127" x2="76.6149" y2="-70.042" gradientUnits="userSpaceOnUse">
<stop stop-color="#26FFED"/>
<stop offset="0.315" stop-color="#18C4CD"/>
<stop offset="0.631" stop-color="#0B90B1"/>
<stop offset="0.869" stop-color="#0370A0"/>
<stop offset="1" stop-color="#006499"/>
</linearGradient>
<linearGradient id="paint11_linear_805_686" x1="48.3199" y1="-2.60456" x2="46.7441" y2="38.5165" gradientUnits="userSpaceOnUse">
<stop stop-color="#0098A6"/>
<stop offset="1" stop-color="#002D4D"/>
</linearGradient>
<linearGradient id="paint12_linear_805_686" x1="-30.2508" y1="52.9371" x2="90.0531" y2="31.8456" gradientUnits="userSpaceOnUse">
<stop stop-color="#26FFED"/>
<stop offset="0.315" stop-color="#18C4CD"/>
<stop offset="0.631" stop-color="#0B90B1"/>
<stop offset="0.869" stop-color="#0370A0"/>
<stop offset="1" stop-color="#006499"/>
</linearGradient>
</defs>
</svg>
