<svg width="64" height="64" viewBox="0 0 64 64" fill="none" xmlns="http://www.w3.org/2000/svg">
<g clip-path="url(#clip0_837_956)">
<path d="M64 32C64 14.3269 49.6731 0 32 0C14.3269 0 0 14.3269 0 32C0 49.6731 14.3269 64 32 64C49.6731 64 64 49.6731 64 32Z" fill="white"/>
<path fill-rule="evenodd" clip-rule="evenodd" d="M14.4818 49.5182L45.9046 23.352C46.2895 23.0165 46.6012 22.6054 46.8208 22.1443C47.0402 21.6831 47.1626 21.1819 47.1804 20.6716C47.198 20.1613 47.1108 19.6527 46.9238 19.1775C46.7368 18.7022 46.4542 18.2706 46.0935 17.909C45.732 17.5477 45.2999 17.2643 44.8242 17.077C44.3485 16.8896 43.8394 16.8021 43.3283 16.8197C42.8174 16.8375 42.3156 16.9601 41.8539 17.18C41.3923 17.3999 40.9809 17.7125 40.6453 18.0981L14.4818 49.5182ZM29.6403 21.6476L16.4096 31.5699L26.3326 18.3403C26.5356 18.0698 26.7943 17.8461 27.0912 17.6841C27.388 17.5222 27.7163 17.4259 28.0536 17.4017C28.3909 17.3775 28.7295 17.426 29.0464 17.5439C29.3634 17.6618 29.6513 17.8464 29.8907 18.0851C30.1306 18.3243 30.3163 18.6123 30.435 18.9295C30.5538 19.2467 30.603 19.5857 30.5793 19.9236C30.5554 20.2615 30.4594 20.5904 30.2973 20.8878C30.1354 21.1853 29.9112 21.4444 29.6403 21.6476ZM45.6592 37.6682L32.4286 47.5903L42.3515 34.3607C42.5545 34.0903 42.8132 33.8665 43.1101 33.7046C43.4069 33.5426 43.7351 33.4463 44.0724 33.4221C44.4098 33.3979 44.7483 33.4464 45.0652 33.5644C45.3822 33.6823 45.6702 33.8669 45.9097 34.1057C46.1496 34.3447 46.3352 34.6327 46.454 34.9499C46.5727 35.2671 46.6219 35.6062 46.5982 35.944C46.5745 36.2819 46.4782 36.6108 46.3163 36.9083C46.1543 37.2057 45.9302 37.4649 45.6592 37.6682Z" fill="black"/>
</g>
<defs>
<clipPath id="clip0_837_956">
<rect width="64" height="64" fill="white"/>
</clipPath>
</defs>
</svg>
