<svg width="64" height="64" viewBox="0 0 64 64" fill="none" xmlns="http://www.w3.org/2000/svg">
<rect width="64" height="64" rx="32" fill="#18191F"/>
<g clip-path="url(#clip0_837_913)">
<path d="M9.26966 29.6809L24.3169 8L31.9213 19.0022L24.209 29.9506H9.43146C9.37753 29.9506 9.37753 29.9506 9.3236 29.8966C9.26966 29.8966 9.26966 29.8427 9.26966 29.8427C9.26966 29.7888 9.26966 29.7888 9.26966 29.7348C9.21573 29.7348 9.26966 29.7348 9.26966 29.6809Z" fill="#7F4AFE"/>
<path d="M54.5191 29.6809L39.4719 8L31.9213 19.0022L39.5798 30.0045H54.3573C54.4112 30.0045 54.4112 30.0045 54.4652 29.9506C54.5191 29.9506 54.5191 29.8966 54.5191 29.8966C54.5191 29.8427 54.5191 29.8427 54.5191 29.7888C54.573 29.7348 54.5191 29.7348 54.5191 29.6809Z" fill="#7F4AFE"/>
<path d="M54.7888 32.809C54.8427 35.8292 54.2494 38.8494 53.1169 41.6539C51.9843 44.4584 50.3124 47.0472 48.1551 49.2045C45.9977 51.3618 43.4629 53.0876 40.7124 54.2202C37.9618 55.3528 34.9416 56 31.8674 56C28.8472 56 25.827 55.4067 23.0225 54.2202C20.218 53.0337 17.6831 51.3618 15.5798 49.2045C13.4764 47.0472 11.7506 44.5124 10.618 41.6539C9.53932 38.8494 8.94607 35.8292 9 32.809H23.5618C23.5618 33.9416 23.7236 35.0202 24.1551 36.0449C24.5865 37.0697 25.1798 38.0405 25.9348 38.7955C26.6899 39.6045 27.6607 40.1978 28.6854 40.6292C29.7101 41.0607 30.7888 41.2764 31.9213 41.2764C33.0539 41.2764 34.1326 41.0607 35.1573 40.6292C36.182 40.1978 37.0989 39.5506 37.9079 38.7955C38.6629 37.9865 39.3101 37.0697 39.6876 36.0449C40.1191 35.0202 40.2809 33.8876 40.2809 32.809H54.7888Z" fill="#0166FF"/>
</g>
<defs>
<clipPath id="clip0_837_913">
<rect width="45.7888" height="48" fill="white" transform="translate(9 8)"/>
</clipPath>
</defs>
</svg>
