<svg width="50" height="64" viewBox="0 0 50 64" fill="none" xmlns="http://www.w3.org/2000/svg">
<path d="M34.4238 0.154443L24.5453 5.74344C20.9746 7.76364 20.6568 12.7867 23.9446 15.2407L34.0309 22.7691C36.0853 24.3024 35.8873 27.4409 33.6566 28.7041L24.5552 33.8584C20.9822 35.8817 20.6698 40.9107 23.9648 43.3608L33.5675 50.5013C34.564 51.2422 35.1512 52.4107 35.1512 53.6523V53.9462C35.1512 54.8502 36.1272 55.4173 36.9125 54.9697L46.8429 49.3096C50.4155 47.2734 50.7083 42.2337 47.3957 39.7974L37.3165 32.3846C35.2473 30.8629 35.4286 27.7153 37.659 26.4413L46.8611 21.1843C50.4281 19.1467 50.72 14.1135 47.4123 11.6773L37.7798 4.58246C36.7752 3.84238 36.1819 2.66877 36.1819 1.42084V1.17973C36.1819 0.277465 35.2091 -0.289848 34.4238 0.154443Z" fill="#075A5A"/>
<path d="M12.7624 9.02842L2.88379 14.6174C-0.686953 16.6376 -1.00464 21.6608 2.28312 24.1147L12.3693 31.643C14.4237 33.1763 14.2258 36.3149 11.9952 37.5781L2.8936 42.7325C-0.679283 44.7558 -0.991733 49.7846 2.30322 52.2347L11.9061 59.3752C12.9024 60.1161 13.4897 61.2846 13.4897 62.5262V62.8203C13.4897 63.7241 14.4657 64.2913 15.251 63.8437L25.1814 58.1837C28.7539 56.1473 29.0469 51.1077 25.7341 48.6713L15.655 41.2585C13.5858 39.7368 13.7672 36.5893 15.9975 35.3152L25.1997 30.0584C28.7666 28.0206 29.0584 22.9875 25.7509 20.5512L16.1184 13.4564C15.1136 12.7164 14.5204 11.5427 14.5204 10.2948V10.0537C14.5204 9.15144 13.5476 8.58411 12.7624 9.02842Z" fill="#075A5A"/>
</svg>
