<svg width="64" height="64" viewBox="0 0 64 64" fill="none" xmlns="http://www.w3.org/2000/svg">
<path d="M13.1727 22.4405L3.46734 17.4987C2.70582 18.9894 2.06582 20.5529 1.54734 22.1489L11.9089 25.5028C12.2491 24.4496 12.6704 23.4208 13.1727 22.4405Z" fill="white"/>
<path d="M21.4116 13.7316L26.7909 22.9914C27.5767 22.5377 28.4192 22.1894 29.2861 21.9544L26.5073 11.6172C27.2122 11.4309 27.9332 11.2689 28.6623 11.1554L26.9529 0.396965C25.3003 0.656206 23.6557 1.05317 22.0678 1.57165L25.3894 11.763C24.3281 12.1114 23.2992 12.5408 22.3109 13.043L17.4258 3.50785C15.9433 4.26937 14.5013 5.15241 13.1565 6.14076L19.5808 14.9387C20.1641 14.5013 20.7797 14.1043 21.4116 13.7316Z" fill="white"/>
<path d="M50.2603 21.4035L41.0005 26.7828C41.4542 27.5686 41.8106 28.4111 42.0456 29.278L52.3828 26.4911C52.5772 27.1959 52.7311 27.917 52.8446 28.638L63.603 26.9286C63.3438 25.2759 62.9468 23.6314 62.4202 22.0435L52.237 25.3732C51.8886 24.3119 51.4592 23.283 50.957 22.2947L60.4922 17.4015C59.7306 15.919 58.8476 14.477 57.8592 13.1321L49.0694 19.5565C49.4906 20.1559 49.8876 20.7716 50.2603 21.4035Z" fill="white"/>
<path d="M46.4851 3.45924C44.9944 2.69772 43.4309 2.05772 41.8349 1.53924L38.4891 11.9008C39.5342 12.241 40.563 12.6623 41.5514 13.1646L46.4851 3.45924Z" fill="white"/>
<path d="M42.6127 13.5453L37.1767 22.9833C37.9625 23.437 38.6917 23.996 39.3317 24.636L54.5782 9.33266C53.3955 8.14987 52.1073 7.0562 50.7625 6.07595L44.476 14.7524C43.8765 14.3149 43.2608 13.9099 42.6127 13.5453Z" fill="white"/>
<path d="M13.5453 21.3711L22.9752 26.8152C23.4289 26.0294 23.9878 25.3003 24.6278 24.6522L9.34076 9.39747C8.15797 10.5803 7.0643 11.8684 6.08405 13.2132L14.7524 19.5078C14.323 20.1073 13.918 20.7311 13.5453 21.3711Z" fill="white"/>
<path d="M35.2972 10.9691L36.9418 0.380758C35.3134 0.129619 33.6527 0 31.9919 0H31.9676V21.598H31.9919C32.8992 21.598 33.8066 21.7114 34.6734 21.9463L37.4684 11.4228C36.7554 11.2284 36.0344 11.0825 35.2972 10.9691Z" fill="white"/>
<path d="M21.9463 29.3185L11.4228 26.5154C11.2365 27.2284 11.0825 27.9575 10.9691 28.6866L0.380758 27.0339C0.129619 28.6623 0 30.3392 0 32H21.598C21.598 31.0846 21.7195 30.1853 21.9463 29.3185Z" fill="white"/>
<path d="M50.8273 41.5595L60.5327 46.5013C61.2942 45.0106 61.9342 43.4471 62.4527 41.8511L52.0911 38.4972C51.7509 39.5504 51.3296 40.5792 50.8273 41.5595Z" fill="white"/>
<path d="M42.5803 50.2603L37.2091 41.0005C36.4233 41.4542 35.5808 41.8025 34.7139 42.0375L37.4927 52.3747C36.7879 52.561 36.0668 52.723 35.3377 52.8365L37.0471 63.5949C38.6998 63.3357 40.3443 62.9387 41.9322 62.4203L38.6106 52.2289C39.6719 51.8805 40.7008 51.4511 41.6891 50.9489L46.5742 60.4841C48.0567 59.7225 49.4987 58.8395 50.8435 57.8511L44.4273 49.0532C43.836 49.4987 43.2203 49.8957 42.5803 50.2603Z" fill="white"/>
<path d="M13.7397 42.5965L22.9995 37.2172C22.5458 36.4314 22.1894 35.5889 21.9544 34.722L11.6172 37.5089C11.4228 36.8041 11.2689 36.083 11.1554 35.362L0.396961 37.0714C0.656202 38.7241 1.05316 40.3686 1.57975 41.9565L11.763 38.6268C12.1114 39.68 12.5408 40.717 13.043 41.7053L3.50785 46.5985C4.26937 48.081 5.1524 49.523 6.14076 50.8679L14.9306 44.4436C14.5094 43.8441 14.1124 43.2284 13.7397 42.5965Z" fill="white"/>
<path d="M17.5149 60.5408C19.0056 61.3023 20.5691 61.9423 22.1651 62.4608L25.5109 52.0992C24.4658 51.759 23.437 51.3377 22.4486 50.8354L17.5149 60.5408Z" fill="white"/>
<path d="M21.3792 50.4547L26.8152 41.0167C26.0294 40.563 25.3003 40.0041 24.6603 39.3641L9.41367 54.6673C10.5965 55.8501 11.8846 56.9438 13.2294 57.9241L19.516 49.2476C20.1154 49.677 20.7392 50.082 21.3792 50.4547Z" fill="white"/>
<path d="M50.4466 42.6289L41.0167 37.1848C40.563 37.9706 40.0041 38.6998 39.3641 39.3479L54.6592 54.6025C55.842 53.4197 56.9357 52.1316 57.916 50.7868L49.2476 44.4922C49.677 43.8846 50.082 43.2689 50.4466 42.6289Z" fill="white"/>
<path d="M29.3185 42.0537L26.5235 52.5772C27.2365 52.7635 27.9656 52.9175 28.6947 53.0309L27.0501 63.6192C28.6785 63.8704 30.3392 64 32 64H32.0243V42.402H32C31.0927 42.402 30.1853 42.2805 29.3185 42.0537Z" fill="white"/>
<path d="M42.402 32C42.402 32.9154 42.2886 33.8147 42.0537 34.6815L52.5772 37.4846C52.7635 36.7716 52.9175 36.0425 53.0309 35.3134L63.6192 36.9661C63.8704 35.3377 64 33.6608 64 32H42.402Z" fill="white"/>
</svg>
