<svg width="64" height="64" viewBox="0 0 64 64" fill="none" xmlns="http://www.w3.org/2000/svg">
<path fill-rule="evenodd" clip-rule="evenodd" d="M14.8783 54.9478C7.89566 49.7304 3.36522 41.3914 3.36522 32C3.36522 16.1913 16.1913 3.36522 32 3.36522C45.0522 3.36522 59.3044 11.1652 62.7478 23.113C58.8956 9.76522 46.5914 0 32 0C14.3304 0 0 14.3304 0 32C0 49.6696 14.3304 64 32 64C49.6696 64 64 49.6696 64 32V30.313H62.2434C62.1914 30.313 62.113 30.313 62.0086 30.313C61.8 30.313 61.5044 30.3044 61.1218 30.287C60.3652 30.2608 59.3218 30.2086 58.1478 30.1044C55.7478 29.8956 53.0086 29.487 51.1478 28.7392C48.1478 27.5392 46.4522 25.9566 44.5218 24.0956L44.4086 23.9914C42.4696 22.1304 40.2956 20.0348 36.513 18.2609C32.7914 16.513 28.6782 16.7913 25.6608 17.4174C24.1304 17.7304 22.8086 18.1478 21.8782 18.487C21.4086 18.6522 21.0348 18.8087 20.774 18.913C19.2522 19.5565 17.7739 20.313 16.287 21.0174C16.287 21.0174 19.2174 21.8174 20.6608 22.2696C20.713 22.287 20.7914 22.313 20.9044 22.3478C21.1218 22.4174 21.4348 22.5304 21.8086 22.687C22.574 23 23.574 23.4608 24.5652 24.1044C26.1304 25.1044 27.426 26.374 27.9566 27.9218C24.6434 28.3566 21.5304 29.8174 19.2 31.1826C17.7913 32.0086 16.6174 32.8434 15.7913 33.4608C15.3826 33.774 15.0522 34.0348 14.8261 34.2174C14.6348 34.374 11.6435 37.0086 11.6435 37.0086C11.6435 37.0086 15.5043 37.4174 17.4087 37.8C18.6783 38.0522 20.3826 38.4696 22.174 39.087C23.9652 39.713 25.774 40.5304 27.2782 41.5826C28.7826 42.6348 29.887 43.8434 30.426 45.2348C32.0086 49.287 30.4522 53.226 27.3304 55.4434C24.2434 57.6348 19.5565 58.1566 14.8696 54.9392L14.8783 54.9478ZM25.8 59.9566C27.0608 59.5478 28.2348 58.9478 29.2956 58.2C33.5392 55.1826 35.774 49.6522 33.574 44.0174C32.7044 41.8 31.0522 40.113 29.2174 38.826C27.374 37.5392 25.2608 36.6 23.2956 35.913C22.0086 35.4608 20.7566 35.113 19.6696 34.8522C20.0608 34.6 20.4696 34.3392 20.913 34.0782C23.5044 32.5566 26.774 31.1566 29.9044 31.1566C34.626 31.1566 38.1392 32.6086 41.4956 34.1566C41.8 34.2956 42.1044 34.4434 42.4174 34.5826C45.4174 35.9914 48.5652 37.4696 52.226 37.4696C55.887 37.4696 58.5392 36.4696 60.4434 35.426C58.7478 49.6174 46.6696 60.626 32.0174 60.626C29.887 60.626 27.8086 60.3914 25.8174 59.9566H25.8ZM56.7914 33.3652C55.5304 33.7914 54 34.1044 52.2174 34.1044C49.3478 34.1044 46.8782 32.9566 43.7478 31.4956C43.4696 31.3652 43.1914 31.2348 42.9044 31.1044C39.7652 29.6522 36.1392 28.113 31.4174 27.8348C30.7826 24.713 28.4174 22.574 26.3826 21.2696C26.1566 21.1218 25.9304 20.9826 25.7044 20.8522C25.9044 20.8086 26.113 20.7566 26.3304 20.713C29.0608 20.1478 32.313 20.0086 35.0696 21.313C38.3392 22.8522 40.1914 24.626 42.113 26.4696L42.1826 26.5304C44.1566 28.426 46.2522 30.4174 49.8956 31.8782C51.9218 32.687 54.5478 33.1218 56.7914 33.3652Z" fill="url(#paint0_linear_805_634)"/>
<defs>
<linearGradient id="paint0_linear_805_634" x1="-0.573914" y1="32.5914" x2="64.574" y2="31.4" gradientUnits="userSpaceOnUse">
<stop stop-color="#29CCB9"/>
<stop offset="0.49" stop-color="#0091FF"/>
<stop offset="1" stop-color="#FF66B7"/>
</linearGradient>
</defs>
</svg>
