<svg width="64" height="64" viewBox="0 0 64 64" fill="none" xmlns="http://www.w3.org/2000/svg">
<rect width="64" height="64" rx="32" fill="black"/>
<path d="M52.2454 42.449V25.0551C52.2454 22.2632 49.9822 20 47.1904 20C45.8437 20 44.5527 20.5373 43.6038 21.4928L27.7989 37.4057C27.1953 38.0135 27.2 38.9958 27.8094 39.5978L29.046 40.8192C32.0712 43.8072 36.9403 43.7952 39.9507 40.7922L45.9321 34.8256C46.216 34.5424 46.6732 34.5346 46.9666 34.8079C47.272 35.0925 47.2842 35.5724 46.9936 35.8721L44.976 37.953C44.679 38.2592 44.6859 38.748 44.9913 39.0458L49.6168 43.5572C50.5974 44.5134 52.2454 43.8188 52.2454 42.449Z" fill="url(#paint0_linear_937_229)"/>
<path d="M12 21.6088V38.9264C12 41.7243 14.2682 43.9925 17.0661 43.9925C18.4064 43.9925 19.6922 43.4613 20.6417 42.5153L36.435 26.7803C37.044 26.1735 37.0419 25.1866 36.4303 24.5824L35.1994 23.3667C32.1742 20.3787 27.3051 20.3907 24.2947 23.3937L18.3134 29.3604C18.0294 29.6436 17.5723 29.6514 17.2789 29.378C16.9734 29.0935 16.9613 28.6135 17.2519 28.3138L19.2762 26.2261C19.5705 25.9225 19.5668 25.439 19.2678 25.1401L14.6425 20.5143C13.6674 19.5391 12 20.2297 12 21.6088Z" fill="url(#paint1_linear_937_229)"/>
<defs>
<linearGradient id="paint0_linear_937_229" x1="12" y1="20" x2="52.8073" y2="20.9967" gradientUnits="userSpaceOnUse">
<stop stop-color="#06C17E"/>
<stop offset="1" stop-color="#06C1A8"/>
</linearGradient>
<linearGradient id="paint1_linear_937_229" x1="12" y1="20" x2="52.8073" y2="20.9967" gradientUnits="userSpaceOnUse">
<stop stop-color="#06C17E"/>
<stop offset="1" stop-color="#06C1A8"/>
</linearGradient>
</defs>
</svg>
