<svg width="64" height="64" viewBox="0 0 64 64" fill="none" xmlns="http://www.w3.org/2000/svg">
<path fill-rule="evenodd" clip-rule="evenodd" d="M31.9918 4.65983C34.9804 4.65983 37.7212 3.59638 39.8554 1.8271C42.1083 -0.0403214 45.7303 -0.843853 47.8202 1.20468C52.8475 6.13172 57.8168 11.1256 62.7469 16.15C64.8025 18.2449 64.0043 21.8871 62.1368 24.1513C60.3794 26.2824 59.3235 29.0136 59.3235 31.9913C59.3235 34.9842 60.3897 37.7281 62.1634 39.8638C64.0388 42.1217 64.8488 45.761 62.7949 47.8578C57.8695 52.8863 52.8866 57.8688 47.8581 62.7942C45.7615 64.8478 42.122 64.0378 39.8643 62.1627C37.7284 60.3894 34.9845 59.323 31.9918 59.323C29.0138 59.323 26.2828 60.3786 24.1517 62.1358C21.8875 64.0033 18.2449 64.8015 16.1503 62.746C11.1258 57.8158 6.13196 52.8468 1.20466 47.8199C-0.843705 45.7301 -0.0405583 42.1081 1.82727 39.8551C3.59638 37.7207 4.65986 34.9801 4.65986 31.9913C4.65986 29.0176 3.60686 26.2895 1.85387 24.1599C-0.00630669 21.9007 -0.797774 18.2758 1.25222 16.1879C6.18434 11.1656 11.1656 6.1841 16.1882 1.25244C18.2758 -0.797921 21.9007 -0.0062628 24.1604 1.85368C26.29 3.60705 29.0179 4.65983 31.9918 4.65983ZM37.8322 10.8001C34.622 7.5899 29.4177 7.5899 26.2075 10.8001L10.7699 26.2375C7.55976 29.4474 7.55976 34.652 10.7699 37.8622L26.2075 53.2996C29.4177 56.5096 34.622 56.5096 37.8322 53.2996L53.2699 37.8622C56.4801 34.652 56.4801 29.4474 53.2699 26.2375L37.8322 10.8001Z" fill="white"/>
</svg>
