<svg width="64" height="64" viewBox="0 0 64 64" fill="none" xmlns="http://www.w3.org/2000/svg">
<path d="M39.1681 55.9821C30.757 55.9804 23.6551 49.7191 22.5798 41.3576C13.9724 40.2497 7.64421 32.7211 8.01553 24.0307C8.38686 15.3403 15.3341 8.38156 24.0045 8.01532C32.6749 7.64908 40.1816 13.9972 41.281 22.6255C50.0862 23.684 56.5322 31.4536 55.9649 40.3244C55.3976 49.1953 48.0146 56.0762 39.1466 55.9992L39.1681 55.9821ZM26.9552 39.2396C26.9548 45.7077 31.9744 51.06 38.4152 51.4586C44.8558 51.8575 50.4946 47.1651 51.2881 40.7462C52.0817 34.3272 47.7563 28.3971 41.4134 27.208V44.6778L26.9552 30.1817V39.2396ZM24.7143 12.5062C18.3802 12.4703 13.0698 17.2941 12.4842 23.6158C11.8986 29.9376 16.2322 35.6588 22.4646 36.7922V19.3095L36.9228 33.7972V24.7478C36.9157 17.9917 31.4545 12.5159 24.7143 12.5062Z" fill="url(#paint0_linear_936_189)"/>
<path d="M41.4003 27.2143V44.6911L26.9028 30.1893V39.2507C26.9122 46.0101 32.3894 51.4873 39.1488 51.4967V55.9997C30.648 55.9997 23.1746 49.6433 22.5154 41.3695C22.4427 40.2267 22.3998 36.8024 22.3998 36.8024V19.3129L36.8973 33.8062V24.7532C36.8902 17.9945 31.4142 12.5166 24.6556 12.5072V8C33.1735 8 40.6298 14.352 41.2719 22.6302C41.3489 23.773 41.4003 27.2143 41.4003 27.2143Z" fill="url(#paint1_linear_936_189)"/>
<defs>
<linearGradient id="paint0_linear_936_189" x1="31.9999" y1="8.00024" x2="31.9999" y2="55.9998" gradientUnits="userSpaceOnUse">
<stop stop-color="#2D73FF"/>
<stop offset="1" stop-color="#2D73FF"/>
</linearGradient>
<linearGradient id="paint1_linear_936_189" x1="31.9" y1="8" x2="31.9" y2="55.9997" gradientUnits="userSpaceOnUse">
<stop offset="0.0916667" stop-color="#2D73FF"/>
<stop offset="0.322917" stop-color="#3DCCFF"/>
<stop offset="0.564583" stop-color="#60F5FF"/>
<stop offset="0.752083" stop-color="#3BC3FF"/>
<stop offset="0.897917" stop-color="#2D73FF"/>
</linearGradient>
</defs>
</svg>
