<?xml version="1.0" encoding="utf-8"?>
<!-- Generator: Adobe Illustrator 27.0.0, SVG Export Plug-In . SVG Version: 6.00 Build 0)  -->
<svg version="1.1" id="Layer_1" xmlns="http://www.w3.org/2000/svg" xmlns:xlink="http://www.w3.org/1999/xlink" x="0px" y="0px"
	 viewBox="0 0 144 144" style="enable-background:new 0 0 144 144;" xml:space="preserve">
<style type="text/css">
	.st0{fill:#3377FF;}
	.st1{fill:#85ADFF;}
	.st2{fill:#FFFFFF;}
	.st3{opacity:0.8;}
	.st4{fill:url(#SVGID_1_);}
</style>
<path class="st0" d="M112,0H32C14.4,0,0,14.4,0,32v80c0,17.6,14.4,32,32,32h80c17.6,0,32-14.4,32-32V32C144,14.4,129.6,0,112,0z"/>
<g>
	<rect x="24.2" y="70" class="st1" width="1" height="3.9"/>
	<rect x="24.2" y="77.9" class="st1" width="1" height="3.9"/>
	<rect x="24.2" y="62.2" class="st1" width="1" height="3.9"/>
	<rect x="24.2" y="101.5" class="st1" width="1" height="3.9"/>
	<rect x="24.2" y="85.8" class="st1" width="1" height="3.9"/>
	<rect x="24.2" y="109.4" class="st1" width="1" height="3.9"/>
	<rect x="24.2" y="54.3" class="st1" width="1" height="3.9"/>
	<polygon class="st1" points="25.2,22.8 24.2,22.8 24.2,24.2 22.8,24.2 22.8,25.2 24.2,25.2 24.2,26.7 25.2,26.7 25.2,25.2 
		26.7,25.2 26.7,24.2 25.2,24.2 	"/>
	<rect x="24.2" y="93.6" class="st1" width="1" height="3.9"/>
	<rect x="24.2" y="125.1" class="st1" width="1" height="3.9"/>
	<rect x="24.2" y="14.9" class="st1" width="1" height="3.9"/>
	<polygon class="st1" points="25.2,117.3 24.2,117.3 24.2,118.8 22.8,118.8 22.8,119.8 24.2,119.8 24.2,121.2 25.2,121.2 
		25.2,119.8 26.7,119.8 26.7,118.8 25.2,118.8 	"/>
	<rect x="24.2" y="30.7" class="st1" width="1" height="3.9"/>
	<rect x="24.2" y="46.4" class="st1" width="1" height="3.9"/>
	<rect x="24.2" y="38.5" class="st1" width="1" height="3.9"/>
	<rect x="118.8" y="14.9" class="st1" width="1" height="3.9"/>
	<rect x="118.8" y="85.8" class="st1" width="1" height="3.9"/>
	<rect x="118.8" y="46.4" class="st1" width="1" height="3.9"/>
	<rect x="118.8" y="125.1" class="st1" width="1" height="3.9"/>
	<rect x="118.8" y="62.2" class="st1" width="1" height="3.9"/>
	<polygon class="st1" points="119.8,117.3 118.8,117.3 118.8,118.8 117.3,118.8 117.3,119.8 118.8,119.8 118.8,121.2 119.8,121.2 
		119.8,119.8 121.2,119.8 121.2,118.8 119.8,118.8 	"/>
	<rect x="118.8" y="70" class="st1" width="1" height="3.9"/>
	<rect x="118.8" y="38.5" class="st1" width="1" height="3.9"/>
	<rect x="118.8" y="54.3" class="st1" width="1" height="3.9"/>
	<rect x="118.8" y="77.9" class="st1" width="1" height="3.9"/>
	<rect x="118.8" y="109.4" class="st1" width="1" height="3.9"/>
	<polygon class="st1" points="119.8,22.8 118.8,22.8 118.8,24.2 117.3,24.2 117.3,25.2 118.8,25.2 118.8,26.7 119.8,26.7 
		119.8,25.2 121.2,25.2 121.2,24.2 119.8,24.2 	"/>
	<rect x="118.8" y="93.6" class="st1" width="1" height="3.9"/>
	<rect x="118.8" y="101.5" class="st1" width="1" height="3.9"/>
	<rect x="118.8" y="30.7" class="st1" width="1" height="3.9"/>
	<rect x="109.4" y="24.2" class="st1" width="3.9" height="1"/>
	<rect x="14.9" y="24.2" class="st1" width="3.9" height="1"/>
	<rect x="101.5" y="24.2" class="st1" width="3.9" height="1"/>
	<rect x="62.2" y="24.2" class="st1" width="3.9" height="1"/>
	<rect x="70" y="24.2" class="st1" width="3.9" height="1"/>
	<rect x="77.9" y="24.2" class="st1" width="3.9" height="1"/>
	<rect x="93.6" y="24.2" class="st1" width="3.9" height="1"/>
	<rect x="85.8" y="24.2" class="st1" width="3.9" height="1"/>
	<rect x="125.1" y="24.2" class="st1" width="3.9" height="1"/>
	<rect x="46.4" y="24.2" class="st1" width="3.9" height="1"/>
	<rect x="54.3" y="24.2" class="st1" width="3.9" height="1"/>
	<rect x="38.5" y="24.2" class="st1" width="3.9" height="1"/>
	<rect x="30.7" y="24.2" class="st1" width="3.9" height="1"/>
	<rect x="93.6" y="118.8" class="st1" width="3.9" height="1"/>
	<rect x="14.9" y="118.8" class="st1" width="3.9" height="1"/>
	<rect x="125.1" y="118.8" class="st1" width="3.9" height="1"/>
	<rect x="101.5" y="118.8" class="st1" width="3.9" height="1"/>
	<rect x="54.3" y="118.8" class="st1" width="3.9" height="1"/>
	<rect x="62.2" y="118.8" class="st1" width="3.9" height="1"/>
	<rect x="85.8" y="118.8" class="st1" width="3.9" height="1"/>
	<rect x="30.7" y="118.8" class="st1" width="3.9" height="1"/>
	<rect x="46.4" y="118.8" class="st1" width="3.9" height="1"/>
	<rect x="38.5" y="118.8" class="st1" width="3.9" height="1"/>
	<rect x="77.9" y="118.8" class="st1" width="3.9" height="1"/>
	<rect x="109.4" y="118.8" class="st1" width="3.9" height="1"/>
	<rect x="70" y="118.8" class="st1" width="3.9" height="1"/>
</g>
<g>
	<path class="st2" d="M112,136H32c-13.2,0-24-10.8-24-24V32C8,18.8,18.8,8,32,8h80c13.2,0,24,10.8,24,24v80
		C136,125.2,125.2,136,112,136z M32,10c-12.1,0-22,9.9-22,22v80c0,12.1,9.9,22,22,22h80c12.1,0,22-9.9,22-22V32c0-12.1-9.9-22-22-22
		H32z"/>
</g>
<g>
	<g class="st3">
		
			<linearGradient id="SVGID_1_" gradientUnits="userSpaceOnUse" x1="72" y1="122" x2="72" y2="26" gradientTransform="matrix(1 0 0 -1 0 146)">
			<stop  offset="0" style="stop-color:#FFFFFF"/>
			<stop  offset="1" style="stop-color:#FFFFFF;stop-opacity:0"/>
		</linearGradient>
		<path class="st4" d="M70.9,49.8L70.9,49.8c-2.5-0.8-4.4-1.5-6.1-1.8c-1.6-0.4-3-0.5-4.5-0.2l0,0l0,0c-2.6,0.5-5,1.9-6.6,4
			c-0.9,1.1-1.5,2.4-1.9,4.1c-0.4,1.6-0.8,3.6-1.2,6.1l0,0.1l0,0.1l0,0l-4,23.9l0,0c0,0.2-0.1,0.4-0.1,0.6l0,0.1
			c-0.2,1.2-0.3,2-0.2,2.8c0.2,2,1.2,3.8,2.8,5l0,0l0,0c1.6,1.2,3.6,1.6,5.6,1.2c0.9-0.2,1.9-0.7,3.4-1.5c0.3-0.2,0.6-0.3,0.8-0.4
			c0.7-0.4,1.1-0.6,1.6-0.7l0,0l0,0c2.4-1,5.1-1.2,7.7-0.6c0.5,0.1,1,0.3,1.8,0.6l0,0c0.2,0.1,0.5,0.2,0.8,0.3c0,0,0,0,0,0l2.2,0.7
			l0,0l0.7,0.2l0.2,0.1c3.6,1.2,6,2,8.2,2h0c0.5,0,1,0,1.6-0.1c2.6-0.5,5-1.9,6.6-4c0.9-1.1,1.5-2.4,1.9-4.1
			c0.4-1.6,0.8-3.6,1.2-6.2l0-0.1l0,0l4-23.8l0,0c0-0.2,0.1-0.4,0.1-0.5l0-0.1c0.2-1.3,0.3-2.1,0.3-2.9c-0.2-2-1.2-3.8-2.8-5l0,0
			l0,0c-1.6-1.2-3.6-1.6-5.6-1.2c-0.8,0.2-1.7,0.6-3,1.2l-0.1,0.1L86,49.6h0l0,0c-1.3,0.6-1.9,0.9-2.5,1.2c-2.4,1-5.1,1.1-7.7,0.5
			c-0.5-0.1-1-0.3-1.8-0.6c-0.2-0.1-0.5-0.2-0.8-0.3c0,0,0,0,0,0L70.9,49.8L70.9,49.8L70.9,49.8 M89.3,48.2
			C89.3,48.2,89.3,48.2,89.3,48.2 M119,72c0,26-21,47-47,47S25,98,25,72s21-47,47-47S119,46,119,72z"/>
	</g>
	<g>
		<path class="st2" d="M72,120c-26.5,0-48-21.5-48-48c0-26.5,21.5-48,48-48c26.5,0,48,21.5,48,48C120,98.5,98.5,120,72,120z M72,26
			c-25.4,0-46,20.6-46,46s20.6,46,46,46s46-20.6,46-46S97.4,26,72,26z M82.1,97.4c-2.4,0-4.9-0.8-8.6-2l-3.9-1.3
			c-0.9-0.3-1.3-0.4-1.8-0.5c-2.4-0.6-4.8-0.4-7.1,0.5c-0.4,0.2-0.8,0.4-1.5,0.7l-0.8,0.4c-1.6,0.8-2.6,1.3-3.7,1.6
			c-2.2,0.5-4.5,0-6.4-1.4c-1.8-1.4-3-3.5-3.2-5.7c-0.1-0.9,0-1.8,0.2-3.1l0.1-0.8l4-24c0.4-2.6,0.8-4.6,1.2-6.3
			c0.5-1.9,1.2-3.3,2.1-4.4c1.8-2.3,4.3-3.8,7.2-4.4c1.5-0.3,3-0.2,4.9,0.3c1.7,0.4,3.6,1,6.1,1.8l3.1,1c0.8,0.3,1.3,0.4,1.8,0.5
			c2.4,0.5,4.8,0.4,7.1-0.5c0.5-0.2,1.1-0.5,2.4-1.2l0.4-0.2c1.4-0.7,2.3-1.1,3.2-1.3c2.2-0.5,4.6,0,6.4,1.4c1.8,1.4,3,3.5,3.2,5.7
			c0.1,0.9-0.1,1.9-0.3,3.2l-0.1,0.7l-4,23.9c-0.4,2.7-0.8,4.7-1.2,6.4c-0.5,1.9-1.2,3.3-2.1,4.5c-1.8,2.3-4.3,3.8-7.2,4.4
			C83.2,97.4,82.6,97.4,82.1,97.4z M65.2,91.3c1.1,0,2.1,0.1,3.2,0.4c0.5,0.1,1.1,0.3,1.9,0.6l3.9,1.3c3.5,1.2,5.9,1.9,7.9,1.9
			c0.5,0,0.9,0,1.4-0.1c2.5-0.5,4.6-1.7,6.1-3.6c0.8-1,1.3-2.1,1.7-3.7c0.4-1.6,0.8-3.6,1.2-6.1l4.1-24.6c0.2-1.2,0.3-2,0.2-2.7
			c-0.2-1.7-1-3.2-2.4-4.3c-1.4-1-3.1-1.4-4.8-1c-0.7,0.2-1.5,0.6-2.8,1.2l-0.3,0.2c-1.2,0.6-1.9,1-2.5,1.2c-2.7,1-5.5,1.3-8.3,0.6
			c-0.5-0.1-1.1-0.3-1.9-0.6l-3.1-1c-2.4-0.8-4.3-1.4-5.9-1.8c-1.6-0.4-2.9-0.5-4.1-0.2c-2.4,0.4-4.6,1.7-6,3.6
			c-0.8,1-1.3,2.1-1.7,3.7c-0.4,1.6-0.8,3.5-1.2,6l0,0.2l-4.1,24.7c-0.2,1.1-0.3,1.9-0.2,2.5c0.2,1.7,1,3.2,2.4,4.3
			c1.4,1,3.1,1.4,4.8,1c0.8-0.2,1.7-0.6,3.2-1.4l0.8-0.4c0.7-0.4,1.2-0.6,1.6-0.8C61.7,91.6,63.4,91.3,65.2,91.3z"/>
	</g>
</g>
</svg>
