<svg width="64" height="64" viewBox="0 0 64 64" fill="none" xmlns="http://www.w3.org/2000/svg">
<path fill-rule="evenodd" clip-rule="evenodd" d="M25.0221 2.35607C24.835 1.17747 26.3917 0.701079 26.8195 1.80608L27.6537 3.9607C27.6797 4.02795 27.6996 4.09604 27.7136 4.16437C29.714 3.65028 31.7291 3.3914 33.7247 3.37135C33.7225 3.30099 33.7263 3.22933 33.7363 3.15691L34.0546 0.856608C34.2181 -0.325999 35.8368 -0.266305 35.9232 0.925527L36.0916 3.24378C36.0968 3.31703 36.096 3.38906 36.0894 3.45933C38.1188 3.63093 40.1129 4.04798 42.0347 4.69269C42.0531 4.62511 42.0775 4.55821 42.1079 4.49265L43.0794 2.40567C43.5777 1.33484 45.1 1.92478 44.8366 3.08678L44.3237 5.35145C44.3076 5.42257 44.286 5.49047 44.2594 5.55488C46.1267 6.37892 47.9063 7.42558 49.5605 8.67689C49.5969 8.6208 49.6381 8.56713 49.6846 8.51652L51.2134 6.85165C51.998 5.99738 53.2747 7.05984 52.6874 8.07825L51.5431 10.063C51.5088 10.1221 51.471 10.1768 51.4296 10.2271C53.1105 11.7526 54.6268 13.5102 55.9303 15.4771C55.9271 15.2876 55.9261 15.0995 55.9251 14.9146V14.9137L55.9249 14.8809C55.9211 13.9378 56.7212 13.2128 57.6279 13.0777C58.0612 13.0164 58.5013 13.1101 58.8793 13.3441C59.2574 13.578 59.5518 13.9391 59.7167 14.3707C60.2329 15.77 60.3199 17.3074 59.9657 18.7627C59.9367 18.8937 59.9028 19.0246 59.8642 19.1728V19.1734L59.864 19.174L59.8632 19.1769L59.8628 19.1786L59.8626 19.1796L59.8602 19.1882C59.8468 19.2405 59.8326 19.2949 59.818 19.3523C61.1433 20.1485 62.1824 21.3921 62.7718 22.8869C63.2453 24.0907 62.796 25.3202 61.7525 25.8085C61.2147 26.0547 60.6882 25.9898 60.2061 25.7208C60.6323 27.7215 60.8489 29.7338 60.8683 31.7281C60.9243 31.7279 60.9812 31.7321 61.0384 31.7411L63.1963 32.0803C64.3059 32.2546 64.2498 33.98 63.1317 34.0722L60.957 34.2516C60.8997 34.2563 60.8433 34.2565 60.7881 34.2522C60.6287 36.4184 60.2385 38.5473 59.6341 40.5987C59.6851 40.6166 59.7357 40.6386 59.7854 40.6648L61.7431 41.7001C62.7476 42.2315 62.1942 43.8539 61.1041 43.5734L58.9798 43.0266C58.9262 43.0128 58.8747 42.9953 58.8251 42.9741C58.0518 44.9682 57.0689 46.8683 55.8935 48.6343C55.9341 48.6667 55.9731 48.7021 56.0103 48.7412L57.572 50.3706C58.3736 51.2067 57.3769 52.5675 56.4214 51.9416L54.5595 50.722C54.5163 50.6936 54.4755 50.6627 54.4373 50.6296C53.1346 52.2605 51.6513 53.7462 50.0038 55.0477C50.0318 55.0902 50.0576 55.1352 50.0808 55.1828L51.0917 57.2427C51.6115 58.3019 50.269 59.2679 49.5419 58.3578L48.1277 56.588C48.0949 56.5471 48.0653 56.5046 48.0386 56.4607C46.6465 57.3684 45.1568 58.1535 43.5771 58.7969C43.2317 58.9377 42.8851 59.0701 42.5376 59.1949C42.5516 59.2438 42.5628 59.2944 42.571 59.3462L42.9361 61.644C43.1234 62.8225 41.5668 63.2988 41.1389 62.194L40.3049 60.0395C40.2865 59.992 40.2711 59.944 40.2587 59.8957C38.2537 60.4116 36.2341 60.6712 34.2341 60.6911C34.2331 60.7414 34.2291 60.7924 34.2221 60.8436L33.9039 63.1433C33.7403 64.326 32.1216 64.2663 32.0352 63.0744L31.8668 60.7568C31.863 60.7045 31.8624 60.6529 31.8648 60.6021C29.831 60.4295 27.8329 60.0101 25.9073 59.3624C25.8915 59.4113 25.8725 59.4599 25.8501 59.5079L24.879 61.5943C24.3807 62.6652 22.8584 62.0752 23.1216 60.9131L23.6345 58.649C23.6466 58.5963 23.6616 58.5453 23.6792 58.4965C21.8093 57.6688 20.0275 56.6179 18.3717 55.3618C18.3421 55.404 18.3093 55.4448 18.2734 55.4838L16.745 57.1484C15.9604 58.0026 14.6838 56.9402 15.271 55.9218L16.4152 53.9373C16.442 53.8911 16.471 53.8473 16.5022 53.8064C14.9748 52.4156 13.5836 50.8327 12.3651 49.0751C12.3229 49.1073 12.2779 49.1367 12.2303 49.1632L10.2977 50.2407C9.30403 50.7947 8.39801 49.3639 9.2516 48.5887L10.9119 47.0812C10.954 47.0431 10.9976 47.0089 11.0428 46.9784C10.376 45.8128 9.78036 44.5831 9.264 43.2933L5.59889 48.4724C5.11303 49.1591 4.16552 49.2323 3.65809 48.5637C0.184623 43.9868 -0.244634 37.9339 0.095842 34.2358C0.177699 33.3466 1.05108 32.8562 1.82338 33.2035L7.31262 35.672C7.17526 34.5364 7.10337 33.401 7.0946 32.2719C7.0371 32.2723 6.97872 32.2682 6.91982 32.2588L4.76205 31.9199C3.6526 31.7453 3.7086 30.0199 4.82671 29.9277L7.0013 29.7483C7.06192 29.7434 7.12162 29.7436 7.18008 29.7485C7.34372 27.5843 7.73785 25.4576 8.34577 23.4085C8.28753 23.3895 8.22969 23.3652 8.17305 23.3351L6.21532 22.2998C5.2107 21.7686 5.76416 20.1461 6.85428 20.4267L8.97881 20.9735C9.04125 20.9896 9.10129 21.0109 9.15833 21.0368C9.93427 19.047 10.9191 17.1511 12.0958 15.3893C12.0441 15.3511 11.9947 15.3077 11.9481 15.2591L10.3864 13.6295C9.58483 12.7933 10.5815 11.4325 11.537 12.0584L13.3989 13.2782C13.4545 13.3146 13.5059 13.3551 13.5532 13.3992C14.8559 11.7734 16.3381 10.2926 17.984 8.99535C17.9446 8.94054 17.909 8.88126 17.8778 8.8176L16.8667 6.75729C16.3469 5.69805 17.6894 4.7322 18.4165 5.6422L19.8311 7.4122C19.8755 7.46782 19.9142 7.52634 19.9474 7.58701C21.333 6.6854 22.8152 5.90539 24.3863 5.26543C24.7361 5.12299 25.087 4.98882 25.4386 4.86287C25.4162 4.79646 25.399 4.72687 25.3874 4.65446L25.0221 2.35607ZM12.3569 40.8393C16.9209 53.57 30.3026 59.9465 42.2456 55.0819C54.0764 50.2629 60.0577 36.2202 55.7326 23.5817C54.2982 24.8658 52.5772 26.0293 50.5758 26.8112C46.0843 28.5658 42.6551 29.3302 39.7611 29.6325C36.4702 34.4562 30.8756 36.4685 28.1687 36.8828L28.5135 29.6598C26.7509 29.7381 24.857 29.9853 22.6423 30.5919C18.4824 31.7311 14.6077 33.5888 11.0909 35.7462C11.3364 37.4539 11.7549 39.16 12.3569 40.8393ZM18.257 41.4605C17.1481 41.6709 16.0889 40.8831 15.8916 39.701C15.6943 38.5187 16.4334 37.3899 17.5423 37.1796C18.6515 36.969 19.7104 37.7569 19.9078 38.9392C20.1053 40.1212 19.3662 41.2502 18.257 41.4605ZM27.6603 41.7236C26.9364 41.861 26.2452 41.3466 26.1163 40.5752C25.9876 39.8036 26.4699 39.0667 27.1938 38.9296C27.9177 38.7922 28.6088 39.3063 28.7377 40.0779C28.8664 40.8496 28.384 41.5862 27.6603 41.7236ZM39.601 41.2259C38.8771 41.3633 38.1858 40.8489 38.0571 40.0775C37.9282 39.3059 38.4106 38.569 39.1345 38.4319C39.8584 38.2945 40.5496 38.8086 40.6783 39.5802C40.8072 40.3519 40.3249 41.0885 39.601 41.2259ZM42.0875 48.0233C42.2162 48.7949 42.9075 49.3091 43.6314 49.1717C44.3551 49.0345 44.8374 48.2977 44.7087 47.526C44.5798 46.7544 43.8888 46.2403 43.1649 46.3777C42.441 46.5148 41.9586 47.2517 42.0875 48.0233ZM28.1333 51.4872C27.4094 51.6244 26.7181 51.1103 26.5894 50.3386C26.4605 49.5672 26.9428 48.8304 27.6667 48.693C28.3906 48.5558 29.0817 49.0699 29.2106 49.8416C29.3395 50.613 28.8572 51.3498 28.1333 51.4872ZM20.9489 45.4896C21.0776 46.2612 21.7689 46.7753 22.4928 46.6379C23.2167 46.5008 23.699 45.7639 23.5701 44.9923C23.4414 44.2207 22.7501 43.7065 22.0262 43.8439C21.3023 43.9811 20.82 44.7179 20.9489 45.4896ZM33.9469 45.9467C33.223 46.0841 32.5317 45.5698 32.403 44.7984C32.2741 44.0267 32.7565 43.2899 33.4804 43.1525C34.2043 43.0153 34.8955 43.5295 35.0242 44.3011C35.1531 45.0727 34.6708 45.8093 33.9469 45.9467ZM45.3107 40.1419C45.5081 41.3242 46.5672 42.1121 47.6762 41.9017C48.7853 41.6912 49.5245 40.5624 49.3269 39.3801C49.1296 38.198 48.0707 37.4102 46.9615 37.6205C45.8525 37.8309 45.1134 38.9599 45.3107 40.1419ZM33.8934 51.1621C34.0908 52.3442 35.1497 53.132 36.2589 52.9217C37.3678 52.7113 38.107 51.5824 37.9096 50.4001C37.7123 49.218 36.6532 48.4301 35.5442 48.6405C34.435 48.8508 33.6959 49.9798 33.8934 51.1621ZM49.489 17.8017C49.8973 19.7135 48.8386 21.6005 47.1246 22.0163C45.4104 22.4321 43.69 21.2194 43.2817 19.3076C42.8737 17.3959 43.9322 15.5089 45.6464 15.0931C47.3604 14.6772 49.0808 15.8899 49.489 17.8017Z" fill="url(#paint0_linear_805_683)"/>
<defs>
<linearGradient id="paint0_linear_805_683" x1="37.4891" y1="-1.56444e-06" x2="66.2811" y2="43.943" gradientUnits="userSpaceOnUse">
<stop offset="0.0677083" stop-color="#874FFF"/>
<stop offset="0.463542" stop-color="#36AFE2"/>
<stop offset="0.859375" stop-color="#41FF54"/>
</linearGradient>
</defs>
</svg>
