<svg width="64" height="64" viewBox="0 0 64 64" fill="none" xmlns="http://www.w3.org/2000/svg">
<g clip-path="url(#clip0_933_153)">
<path d="M0 14.0351C0 6.28373 6.28373 0 14.0351 0H49.9649C57.7162 0 64 6.28373 64 14.0351V49.9649C64 57.7162 57.7162 64 49.9649 64H14.0351C6.28373 64 0 57.7162 0 49.9649V14.0351Z" fill="#FEDA03"/>
<path fill-rule="evenodd" clip-rule="evenodd" d="M48.2122 26.7921C48.2122 29.8622 46.4185 31.3892 44.4028 31.9197C46.8154 32.6428 48.5614 34.6201 48.5614 37.7544V43.5088H39.3549V38.0438C39.3549 36.3719 38.3708 35.6968 36.6883 35.6968H25.7677V43.5088H16.5614V20.4912H38.4345C43.9265 20.4912 48.2122 21.6807 48.2122 26.7921ZM25.7718 26.9221H38.2178V26.9231C38.2363 26.9224 38.2552 26.9221 38.2737 26.9221C39.1295 26.9221 39.8234 27.6246 39.8234 28.4912C39.8234 29.3577 39.1295 30.0603 38.2737 30.0603C38.2552 30.0603 38.2363 30.0601 38.2178 30.0595V30.0603H25.7718V26.9221Z" fill="black"/>
</g>
<defs>
<clipPath id="clip0_933_153">
<rect width="64" height="64" rx="32" fill="white"/>
</clipPath>
</defs>
</svg>
