<svg width="32" height="33" viewBox="0 0 32 33" fill="none" xmlns="http://www.w3.org/2000/svg">
<path d="M22.0731 20.5046L19.8238 18.2554C18.8042 17.2358 17.4546 16.666 15.985 16.666C14.5455 16.666 13.1659 17.2358 12.1462 18.2554L9.89695 20.5046L3.62891 26.7723L5.72825 28.8715L12.0263 22.5738C12.6561 21.9441 13.4059 22.184 13.6158 22.2739C13.8257 22.3639 14.5155 22.7238 14.5155 23.6234V32.5001H17.4846V23.6234C17.4846 22.7238 18.1744 22.3639 18.3843 22.2739C18.5942 22.184 19.344 21.9441 19.9738 22.5738L26.2718 28.8715L28.3712 26.7723L22.1031 20.5046H22.0731Z" fill="white"/>
<path d="M22.0731 20.5046L19.8238 18.2554C18.8042 17.2358 17.4546 16.666 15.985 16.666C14.5455 16.666 13.1659 17.2358 12.1462 18.2554L9.89695 20.5046L3.62891 26.7723L5.72825 28.8715L12.0263 22.5738C12.6561 21.9441 13.4059 22.184 13.6158 22.2739C13.8257 22.3639 14.5155 22.7238 14.5155 23.6234V32.5001H17.4846V23.6234C17.4846 22.7238 18.1744 22.3639 18.3843 22.2739C18.5942 22.184 19.344 21.9441 19.9738 22.5738L26.2718 28.8715L28.3712 26.7723L22.1031 20.5046H22.0731Z" fill="url(#paint0_linear_23529_809)"/>
<path d="M26.3618 15.0146C25.1921 15.0146 24.2024 14.3549 23.7526 13.2753C23.3027 12.1957 23.5426 11.0261 24.3524 10.2164L28.3411 6.22787L26.2418 4.12865L22.7029 7.66734C22.433 7.93724 22.1331 8.14716 21.8332 8.38707C21.0534 8.83691 20.1537 8.89688 19.284 8.53702C18.1443 8.0572 17.4545 7.03757 17.4545 5.80803V0.5H14.4855V5.80803C14.4855 7.03757 13.7957 8.0572 12.656 8.53702C11.7863 8.89688 10.8866 8.83691 10.1368 8.41706C9.83693 8.17715 9.50703 7.96723 9.23711 7.66734L5.69822 4.12865L3.59888 6.22787L7.3477 9.97648C8.21743 10.8462 8.45736 12.0457 7.97751 13.1853C7.49766 14.3249 6.47798 15.0146 5.24836 15.0146H0V17.9835H5.30834C7.73758 17.9835 9.83693 16.574 10.7666 14.3549C11.0366 13.7251 11.1565 13.0953 11.1865 12.4656C12.716 13.0953 14.3655 13.4252 15.985 13.4252C17.6045 13.4252 19.134 13.1253 20.6036 12.5255C20.6336 13.1553 20.7535 13.7851 21.0234 14.4148C21.9231 16.604 23.9625 17.9835 26.3618 17.9835H32V15.0146H26.3618Z" fill="url(#paint1_linear_23529_809)"/>
<path d="M26.3618 15.0146C25.1921 15.0146 24.2024 14.3549 23.7526 13.2753C23.3027 12.1957 23.5426 11.0261 24.3524 10.2164L28.3411 6.22787L26.2418 4.12865L22.7029 7.66734C22.433 7.93724 22.1331 8.14716 21.8332 8.38707C21.0534 8.83691 20.1537 8.89688 19.284 8.53702C18.1443 8.0572 17.4545 7.03757 17.4545 5.80803V0.5H14.4855V5.80803C14.4855 7.03757 13.7957 8.0572 12.656 8.53702C11.7863 8.89688 10.8866 8.83691 10.1368 8.41706C9.83693 8.17715 9.50703 7.96723 9.23711 7.66734L5.69822 4.12865L3.59888 6.22787L7.3477 9.97648C8.21743 10.8462 8.45736 12.0457 7.97751 13.1853C7.49766 14.3249 6.47798 15.0146 5.24836 15.0146H0V17.9835H5.30834C7.73758 17.9835 9.83693 16.574 10.7666 14.3549C11.0366 13.7251 11.1565 13.0953 11.1865 12.4656C12.716 13.0953 14.3655 13.4252 15.985 13.4252C17.6045 13.4252 19.134 13.1253 20.6036 12.5255C20.6336 13.1553 20.7535 13.7851 21.0234 14.4148C21.9231 16.604 23.9625 17.9835 26.3618 17.9835H32V15.0146H26.3618Z" fill="white"/>
<defs>
<linearGradient id="paint0_linear_23529_809" x1="16" y1="32.5001" x2="16" y2="16.666" gradientUnits="userSpaceOnUse">
<stop stop-color="#385CE5"/>
<stop offset="0.45" stop-color="#E968DD"/>
<stop offset="0.75" stop-color="white"/>
</linearGradient>
<linearGradient id="paint1_linear_23529_809" x1="16" y1="0.5" x2="16" y2="17.9835" gradientUnits="userSpaceOnUse">
<stop stop-color="#385CE5"/>
<stop offset="0.45" stop-color="#E968DD"/>
<stop offset="0.75" stop-color="white"/>
</linearGradient>
</defs>
</svg>
