<svg width="64" height="64" viewBox="0 0 64 64" fill="none" xmlns="http://www.w3.org/2000/svg">
<path d="M28.7923 32.5167L29.6367 31.6423V28.5876L28.7923 27.7133H27.6409L26.8403 28.5876V31.6423L27.6409 32.5167H28.7923Z" fill="#75FB6E"/>
<path d="M36.3591 32.4826L37.1597 31.6082V28.5876L36.3591 27.7133H35.1967L34.3633 28.5876V31.6082L35.1967 32.4826H36.3591Z" fill="#75FB6E"/>
<path d="M55.2762 25.6011L54.1138 25.4422L49.9575 28.7466L49.793 29.9503L49.6066 30.1207H48.477L47.6326 30.9837V32.1419L48.4003 32.9368V33.3456L47.5997 34.22L47.6326 39.6366L48.477 40.4656L48.5209 40.8857L48.5428 40.9084L47.7533 41.7147V42.9184L47.3914 43.2818H41.5134L41.1624 42.9184V42.2938V36.8204L40.9979 36.6615L40.318 35.9574V35.5373L40.2522 35.4805L41.0747 34.6288V33.4705L41.0199 33.4024L41.1624 33.3911L41.3927 33.0958L42.5552 32.9709L45.3516 29.2463L45.2419 28.088L45.5161 27.7928L45.5051 27.6792L45.5161 27.6678L45.4832 27.3385L45.4722 27.259L46.3167 26.3847L46.2399 19.4351L45.3955 18.6061V18.5153L45.4393 18.1519L45.1213 17.7317L45.231 16.528L42.4016 12.8034L41.2392 12.6785L41.0637 12.44L41.0747 12.4287V11.2704L40.2742 10.396H39.2433H39.1556L38.7608 10.0667V8.87438L37.8725 8H32.0822H31.9178H26.1165L25.2392 8.87438V10.0667L24.8444 10.396H24.7567H23.7149L22.9143 11.2704V12.4287L22.9253 12.44L22.7608 12.6785L21.5984 12.8034L18.7581 16.528L18.8787 17.7317L18.5607 18.1519L18.6045 18.5153V18.6061L17.7601 19.4351L17.6833 26.3847L18.5168 27.259L18.4839 27.7928L18.791 28.1221L18.6813 29.2463L21.4777 32.9709L22.6402 33.0958L22.8814 33.3911L22.9801 33.4024L22.9143 33.4705V34.6288L23.7149 35.5032L23.682 35.5373V35.9574L23.0021 36.6615L22.8376 36.8204V42.2938V42.9184L22.4757 43.2818H16.5977L16.2358 42.9184V41.7147L15.4352 40.8857L15.4791 40.4656L16.3235 39.6366L16.3564 34.22L15.5559 33.3456L15.5997 32.9368L16.3564 32.1419V30.9837L15.523 30.1207H14.3825L14.196 29.9503L14.0425 28.7466L9.87526 25.4422L8.72378 25.6011L8 26.555L8.1645 27.7587L12.3208 31.0632L13.4832 30.9042L13.5709 30.9723L13.56 30.9837V32.1419L14.3605 33.0163H14.4044V33.2661L13.56 34.1292L13.4832 39.5571L14.2838 40.4315V40.8403H14.2399L13.4393 41.7147V42.9184L14.2399 43.7473H15.4023L15.7642 44.1107V45.3144L16.5648 46.1434H22.4428L23.2762 45.3144V44.1107L23.6381 43.7473H24.8444L25.634 42.9184V42.4982V36.8204L24.9212 35.9574L24.8773 35.5032L25.7217 34.6288V33.4705L24.8773 32.5962H23.7478L23.5613 32.3463L23.682 31.154L20.8417 27.4294L19.6792 27.3045V27.2931V27.259L20.5236 26.4301L20.5565 19.5145L19.756 18.6402L19.767 18.5153L19.7999 18.4812L20.9623 18.3563L23.7587 14.6317L23.6381 13.428L23.7368 13.3031H24.8773L25.7217 12.4287V11.3499V11.2704L26.1165 10.9411H31.9178H32.0822H37.8725L38.2783 11.2704V11.3499V12.4287L39.1227 13.3031H40.2632L40.3619 13.428L40.2413 14.6317L43.0377 18.3563L44.2001 18.4812L44.2221 18.5153L44.233 18.6402L43.4325 19.5145L43.4764 26.4301L44.3208 27.259V27.3045L43.2022 27.4294L40.3619 31.154L40.4716 32.3463L40.2632 32.6302L40.2413 32.5962H39.0788L38.2783 33.4705V34.6288L39.0788 35.5032H39.1227L39.0788 35.9574L38.3989 36.8204V42.4982V42.9184L39.1995 43.7473H40.3619L40.7128 44.1107V45.3144L41.5572 46.1434H47.4352L48.2358 45.3144V44.1107L48.5977 43.7473H49.7601L50.5607 42.9184V41.7147L49.7601 40.8403H49.6724V40.4315L50.4729 39.5571L50.3962 34.1292L49.5517 33.2661V33.0163H49.6395L50.44 32.1419V30.9837L50.4291 30.9723L50.5168 30.9042L51.6792 31.0632L55.8355 27.7587L56 26.555L55.2762 25.6011Z" fill="#75FB6E"/>
<path d="M28.3537 43.4975L27.5202 44.3605V45.5642L27.1584 45.9389H25.9959L20.403 51.6054V52.775L20.0411 53.1384H14.1631L13.8013 52.775V51.5713L12.9568 50.6969H11.8054L11.0048 51.5713V52.775L11.8054 53.604H12.9568L13.3187 53.9673V55.171L14.1193 56H19.9973L20.8417 55.171V53.9673L21.1926 53.604L21.2365 53.638H22.3989L28.0028 47.9716V46.7679L28.3208 46.3932H29.4394L30.3605 45.5642V44.3605L29.5161 43.4975H28.3537Z" fill="#75FB6E"/>
<path d="M51.1199 50.6969L50.2755 51.5713V52.775L49.9136 53.1384H44.0356L43.6738 52.775V51.6054L38.0809 45.9389H36.9184L36.5565 45.5642V44.3605L35.7231 43.4975H34.5607L33.7162 44.3605V45.5642L34.6374 46.3932H35.756L36.074 46.7679V47.9716L41.6779 53.638H42.8403L42.8732 53.604L43.2351 53.9673V55.171L44.0795 56H49.9575L50.7581 55.171V53.9673L51.1199 53.604H52.2714L53.072 52.775V51.5713L52.2714 50.6969H51.1199Z" fill="#75FB6E"/>
</svg>
