<svg width="64" height="64" viewBox="0 0 64 64" fill="none" xmlns="http://www.w3.org/2000/svg">
<g clip-path="url(#clip0_837_959)">
<path fill-rule="evenodd" clip-rule="evenodd" d="M42.1063 1.61383C51.4313 4.73784 58.7676 12.0636 61.9541 21.3242C63.2309 24.6866 63.9296 28.3321 63.9296 32.1401C63.9296 42.731 58.5253 52.0644 50.3138 57.5538C45.1042 61.2555 38.728 63.4334 31.8412 63.4334C29.8153 63.4334 27.6034 63.0846 25.683 62.7243L25.6901 62.712C25.798 62.5207 27.1582 60.1097 29.7705 55.4793L41.571 34.4891L43.1257 31.8068L38.0082 22.978H29.8402C38.0176 8.73526 42.1063 1.61383 42.1063 1.61383Z" fill="#CBFF01"/>
<path fill-rule="evenodd" clip-rule="evenodd" d="M31.8414 0C34.1968 0 36.2962 0.161531 38.5061 0.644862C38.5223 0.648409 34.1141 8.50388 25.2814 24.2112L23.7977 26.8085L22.3587 29.368L20.804 32.0501L25.9214 40.8791H34.1159L22.3963 61.1682C22.3735 61.2032 22.3537 61.2375 22.3347 61.2704L22.2523 61.4133C22.0638 61.7399 21.9696 61.9031 21.9696 61.9031C9.12876 57.8155 0 45.8635 0 31.7168C0 14.2001 14.2559 0 31.8414 0Z" fill="#00FFA3"/>
</g>
<defs>
<clipPath id="clip0_837_959">
<rect width="64" height="64" fill="white"/>
</clipPath>
</defs>
</svg>
