<svg width="127" height="126" viewBox="0 0 127 126" fill="none" xmlns="http://www.w3.org/2000/svg">
<path d="M125.515 62.8733C125.515 75.0682 121.899 86.9893 115.124 97.1289C108.349 107.269 98.719 115.172 87.4524 119.838C76.1858 124.505 63.7883 125.726 51.8278 123.347C39.8672 120.968 28.8807 115.096 20.2576 106.472C11.6345 97.8494 5.76213 86.8629 3.38302 74.9023C1.00391 62.9417 2.22496 50.5443 6.89174 39.2776C11.5585 28.011 19.4614 18.3813 29.6011 11.6062C39.7408 4.83105 51.6618 1.21484 63.8567 1.21484C80.2096 1.21484 95.8927 7.71099 107.456 19.2742C119.019 30.8374 125.515 46.5205 125.515 62.8733Z" fill="#0A0A0A"/>
<path d="M63.854 125.153C51.5369 125.153 39.4964 121.501 29.2551 114.658C19.0138 107.815 11.0317 98.0888 6.31817 86.7093C1.60462 75.3298 0.371342 62.8081 2.77429 50.7277C5.17723 38.6472 11.1085 27.5507 19.818 18.8412C28.5275 10.1317 39.624 4.20042 51.7045 1.79748C63.7849 -0.605465 76.3066 0.627813 87.6861 5.34136C99.0656 10.0549 108.792 18.037 115.635 28.2783C122.478 38.5196 126.13 50.5601 126.13 62.8772C126.111 79.3878 119.543 95.2167 107.868 106.891C96.1935 118.566 80.3646 125.134 63.854 125.153ZM63.854 1.8365C51.7813 1.8365 39.9797 5.41647 29.9416 12.1237C19.9035 18.8309 12.0798 28.3642 7.45975 39.5179C2.83973 50.6716 1.63092 62.9449 3.98618 74.7856C6.34145 86.6263 12.155 97.5027 20.6917 106.039C29.2284 114.576 40.1048 120.39 51.9455 122.745C63.7862 125.1 76.0595 123.891 87.2132 119.271C98.3669 114.651 107.9 106.828 114.607 96.7895C121.315 86.7515 124.895 74.9499 124.895 62.8772C124.877 46.693 118.44 31.1767 106.997 19.7322C95.5537 8.28771 80.0381 1.84962 63.854 1.83032V1.8365Z" fill="#F7F7F7"/>
<path fill-rule="evenodd" clip-rule="evenodd" d="M102.231 77.2684C102.217 82.3535 100.191 87.2263 96.5957 90.8225C93.0005 94.4186 88.1282 96.446 83.0431 96.4616H68.6417V110.795H59.0655V96.4616H44.6641C39.5789 96.446 34.7065 94.4187 31.1111 90.8225C27.5156 87.2264 25.4893 82.3536 25.4746 77.2684H35.0681C35.0756 79.8111 36.089 82.2475 37.887 84.0455C39.685 85.8435 42.1214 86.8569 44.6641 86.8644H83.0431C85.5881 86.8644 88.0289 85.8534 89.8285 84.0538C91.6281 82.2542 92.6391 79.8134 92.6391 77.2684C92.6391 74.7234 91.6281 72.2826 89.8285 70.483C88.0289 68.6834 85.5881 67.6724 83.0431 67.6724H44.6641C39.6003 67.6318 34.7577 65.5917 31.1913 61.9966C27.6249 58.4014 25.6237 53.5426 25.6237 48.4786C25.6237 43.4146 27.6249 38.5558 31.1913 34.9606C34.7577 31.3655 39.6003 29.3254 44.6641 29.2848H59.0655V14.9575H68.6417V29.291H83.0431C88.1271 29.3066 92.9985 31.3331 96.5936 34.9279C100.189 38.5228 102.215 43.394 102.231 48.478H92.6379C92.6307 45.9354 91.6176 43.499 89.8198 41.701C88.022 39.9029 85.5857 38.8895 83.0431 38.882H44.6641C42.1378 38.9107 39.7247 39.9344 37.9484 41.7309C36.172 43.5275 35.1758 45.9521 35.1758 48.4786C35.1758 51.0051 36.172 53.4297 37.9484 55.2262C39.7247 57.0228 42.1378 58.0465 44.6641 58.0752H83.0431C88.1282 58.0909 93.0005 60.1182 96.5957 63.7144C100.191 67.3105 102.217 72.1833 102.231 77.2684Z" fill="#F7F7F7"/>
</svg>
