<svg width="64" height="64" viewBox="0 0 64 64" fill="none" xmlns="http://www.w3.org/2000/svg">
<g clip-path="url(#clip0_837_985)">
<path d="M7.03078 37.2704C7.02308 37.3016 7.01923 37.3326 7.01539 37.3657C7.00962 37.4027 7.00577 37.4377 7.00385 37.4747C7.00385 37.4844 7 37.494 7 37.5057C7 37.5271 7.00577 37.5466 7.00577 37.5661C7.00769 37.603 7.00962 37.6381 7.01731 37.675C7.02308 37.708 7.03078 37.7392 7.03847 37.7703C7.04616 37.8015 7.05578 37.8326 7.06732 37.8637C7.07886 37.8949 7.09233 37.9259 7.10771 37.9551C7.12118 37.9843 7.13657 38.0116 7.15388 38.0408C7.17119 38.068 7.19042 38.0953 7.20966 38.1206C7.22889 38.1477 7.25005 38.173 7.27313 38.1983C7.29429 38.2217 7.3193 38.245 7.34238 38.2664C7.36738 38.2878 7.39046 38.3091 7.41739 38.3286C7.44625 38.35 7.47702 38.3675 7.5078 38.387C7.52511 38.3967 7.5405 38.4104 7.55973 38.4201L31.7686 50.6623C31.7782 50.6662 31.7877 50.6681 31.7955 50.672C31.809 50.6779 31.8205 50.6856 31.834 50.6915C31.8455 50.6973 31.859 50.6993 31.8725 50.7051C31.8916 50.7129 31.9129 50.7187 31.932 50.7246C31.9513 50.7304 31.9705 50.7363 31.9898 50.7401C32.0013 50.7421 32.0109 50.7479 32.0225 50.7499C32.034 50.7518 32.0455 50.7518 32.057 50.7538C32.0782 50.7577 32.0993 50.7596 32.1225 50.7616C32.1456 50.7635 32.1686 50.7654 32.1898 50.7654C32.2091 50.7654 32.2302 50.7654 32.2495 50.7654C32.2725 50.7654 32.2936 50.7635 32.3168 50.7616C32.3379 50.7596 32.3591 50.7557 32.3822 50.7538C32.3936 50.7518 32.4052 50.7518 32.4168 50.7499C32.4284 50.7479 32.4379 50.744 32.4495 50.7401C32.4687 50.7363 32.4879 50.7304 32.5072 50.7246C32.5264 50.7187 32.5475 50.7109 32.5668 50.7051C32.5802 50.7012 32.5918 50.6973 32.6052 50.6915C32.6188 50.6856 32.6302 50.6779 32.6438 50.672C32.6534 50.6681 32.663 50.6662 32.6707 50.6623L56.8795 38.4201C56.8988 38.4104 56.9122 38.3967 56.9315 38.387C56.9622 38.3695 56.9929 38.35 57.0218 38.3286C57.0488 38.3091 57.0718 38.2878 57.0968 38.2664C57.1218 38.245 57.1449 38.2217 57.1661 38.1983C57.1892 38.173 57.2084 38.1477 57.2295 38.1206C57.2488 38.0953 57.2681 38.068 57.2854 38.0408C57.3027 38.0135 57.3161 37.9843 57.3315 37.9551C57.347 37.9259 57.3604 37.8949 57.372 37.8637C57.3834 37.8326 57.3931 37.8015 57.4008 37.7703C57.4084 37.7392 57.4161 37.708 57.422 37.675C57.4277 37.6381 57.4297 37.603 57.4334 37.5661C57.4354 37.5466 57.4392 37.5271 57.4392 37.5057C57.4392 37.4961 57.4373 37.4864 57.4354 37.4747C57.4334 37.4377 57.4297 37.4027 57.4238 37.3657C57.42 37.3345 57.4161 37.3016 57.4084 37.2704C57.4008 37.2412 57.3911 37.2101 57.3815 37.1809C57.37 37.1459 57.3584 37.109 57.3411 37.0759C57.3372 37.0661 57.3354 37.0564 57.3315 37.0486L45.2251 12.5642C45.2194 12.5525 45.2098 12.5447 45.204 12.535C45.1694 12.4708 45.129 12.4105 45.081 12.356C45.0694 12.3424 45.0598 12.3288 45.0482 12.3171C44.9924 12.2587 44.9289 12.2062 44.8597 12.1615C44.8424 12.1498 44.8251 12.142 44.8078 12.1323C44.7519 12.1012 44.6924 12.0759 44.6308 12.0545C44.6096 12.0467 44.5885 12.0409 44.5673 12.035C44.4903 12.0156 44.4116 12.0019 44.3308 12.0019C44.3269 12.0019 44.323 12 44.323 12C44.3135 12 44.3019 12.0039 44.2923 12.0039C44.2288 12.0058 44.1673 12.0117 44.1076 12.0253C44.0884 12.0292 44.0692 12.0389 44.0499 12.0428C43.998 12.0584 43.948 12.0759 43.8999 12.0973C43.8922 12.1012 43.8826 12.1031 43.8749 12.107C43.8557 12.1167 43.8422 12.1303 43.823 12.1401C43.7921 12.1576 43.7614 12.177 43.7326 12.1984C43.7057 12.2179 43.6826 12.2393 43.6576 12.2607C43.6326 12.2821 43.6094 12.3054 43.5883 12.3288C43.5653 12.3541 43.546 12.3793 43.5248 12.4066C43.5056 12.4319 43.4864 12.4591 43.4691 12.4863C43.4517 12.5136 43.4383 12.5428 43.4228 12.5719C43.4075 12.6011 43.394 12.6322 43.3825 12.6634C43.371 12.6945 43.3633 12.7256 43.3537 12.7567C43.346 12.7879 43.3382 12.819 43.3325 12.8521C43.3267 12.889 43.3248 12.9241 43.321 12.961C43.319 12.9805 43.3151 12.9999 43.3151 13.0213V35.043L32.9342 24.5438C32.8861 24.4951 32.8341 24.4523 32.7784 24.4154C32.7552 24.3998 32.7284 24.3881 32.7034 24.3745C32.6707 24.357 32.6399 24.3375 32.6052 24.322C32.5725 24.3084 32.5379 24.3006 32.5052 24.2909C32.4764 24.2831 32.4475 24.2714 32.4186 24.2656C32.3533 24.252 32.2879 24.2461 32.2206 24.2461C32.1552 24.2461 32.0879 24.2539 32.0225 24.2656C31.9917 24.2714 31.9647 24.2831 31.934 24.2909C31.8993 24.3006 31.8666 24.3084 31.834 24.322C31.7993 24.3356 31.7686 24.357 31.7359 24.3745C31.7109 24.3881 31.6859 24.3998 31.6609 24.4154C31.605 24.4523 31.5531 24.4951 31.505 24.5438L21.124 35.043V13.0213C21.124 12.9999 21.1183 12.9805 21.1183 12.961C21.1164 12.9241 21.1144 12.889 21.1067 12.8521C21.101 12.819 21.0933 12.7879 21.0856 12.7567C21.0779 12.7256 21.0683 12.6945 21.0567 12.6634C21.0452 12.6322 21.0317 12.6011 21.0163 12.5719C21.0029 12.5428 20.9874 12.5155 20.9701 12.4863C20.9529 12.4591 20.9337 12.4319 20.9144 12.4066C20.8951 12.3793 20.874 12.3541 20.851 12.3288C20.8298 12.3054 20.8047 12.2821 20.7817 12.2607C20.7567 12.2393 20.7336 12.2179 20.7067 12.1984C20.6778 12.177 20.6471 12.1595 20.6163 12.1401C20.599 12.1303 20.5835 12.1167 20.5644 12.107C20.5567 12.1031 20.547 12.1012 20.5394 12.0973C20.4912 12.0739 20.4412 12.0584 20.3912 12.0428C20.3701 12.037 20.3508 12.0272 20.3297 12.0233C20.2701 12.0097 20.2104 12.0039 20.1469 12.0019C20.1374 12.0039 20.1258 12 20.1162 12C20.1123 12 20.1085 12.0019 20.1085 12.0019C20.0258 12.0019 19.9469 12.0156 19.8719 12.035C19.8508 12.0409 19.8296 12.0486 19.8085 12.0545C19.7469 12.0739 19.6872 12.1012 19.6315 12.1323C19.6142 12.142 19.5969 12.1498 19.5795 12.1615C19.5103 12.2062 19.4467 12.2568 19.391 12.3171C19.3795 12.3288 19.3699 12.3443 19.3583 12.356C19.3102 12.4105 19.2698 12.4708 19.2352 12.535C19.2294 12.5466 19.2198 12.5544 19.2141 12.5642L7.10771 37.0486C7.10387 37.0584 7.10194 37.0661 7.0981 37.0759C7.08271 37.109 7.07117 37.1459 7.0577 37.1809C7.04809 37.2101 7.03847 37.2393 7.03078 37.2704ZM19.6969 38.5252L27.1099 46.0226L12.2838 38.5252H19.6969ZM44.7405 38.5252H52.1535L37.3273 46.0226L44.7405 38.5252ZM45.331 36.4845V17.342L54.7945 36.4845H45.331ZM33.2266 47.2832V27.7244L42.8958 37.5039L33.2266 47.2832ZM31.2107 47.2832L21.5415 37.5039L31.2107 27.7244V47.2832ZM9.64286 36.4845L19.1063 17.342V36.4845H9.64286Z" fill="#A3EC26"/>
</g>
<defs>
<clipPath id="clip0_837_985">
<rect width="51" height="39" fill="white" transform="translate(7 12)"/>
</clipPath>
</defs>
</svg>
