<svg width="32" height="32" viewBox="0 0 32 32" fill="none" xmlns="http://www.w3.org/2000/svg">
<g id="ic:baseline-telegram">
<path id="Vector" d="M16 5C9.928 5 5 9.928 5 16C5 22.072 9.928 27 16 27C22.072 27 27 22.072 27 16C27 9.928 22.072 5 16 5ZM21.104 12.48C20.939 14.218 20.224 18.442 19.861 20.389C19.707 21.214 19.399 21.489 19.113 21.522C18.475 21.577 17.991 21.104 17.375 20.697C16.407 20.059 15.857 19.663 14.922 19.047C13.833 18.332 14.537 17.936 15.164 17.298C15.329 17.133 18.145 14.57 18.2 14.339C18.2076 14.304 18.2066 14.2677 18.197 14.2332C18.1875 14.1987 18.1696 14.167 18.145 14.141C18.079 14.086 17.991 14.108 17.914 14.119C17.815 14.141 16.275 15.164 13.272 17.188C12.832 17.485 12.436 17.639 12.084 17.628C11.688 17.617 10.94 17.408 10.379 17.221C9.686 17.001 9.147 16.88 9.191 16.495C9.213 16.297 9.488 16.099 10.005 15.89C13.217 14.493 15.351 13.569 16.418 13.129C19.476 11.853 20.103 11.633 20.521 11.633C20.609 11.633 20.818 11.655 20.95 11.765C21.06 11.853 21.093 11.974 21.104 12.062C21.093 12.128 21.115 12.326 21.104 12.48Z" fill="white"/>
</g>
</svg>
