<svg width="32" height="32" viewBox="0 0 32 32" fill="none" xmlns="http://www.w3.org/2000/svg">
<g id="Discord">
<path id="Vector" d="M23.7625 8.6589C22.3348 7.98361 20.8038 7.4861 19.2031 7.20115C19.1739 7.19565 19.1448 7.20939 19.1298 7.23688C18.9329 7.59787 18.7148 8.06882 18.5621 8.43898C16.8404 8.17328 15.1275 8.17328 13.4411 8.43898C13.2883 8.06059 13.0623 7.59787 12.8645 7.23688C12.8495 7.21031 12.8204 7.19656 12.7912 7.20115C11.1914 7.48518 9.66038 7.9827 8.23179 8.6589C8.21943 8.66439 8.20883 8.67356 8.20179 8.68547C5.29782 13.1577 4.5023 17.5199 4.89256 21.8281C4.89432 21.8492 4.9058 21.8694 4.92169 21.8822C6.83765 23.3326 8.69358 24.2131 10.515 24.7967C10.5442 24.8059 10.5751 24.7949 10.5936 24.7702C11.0245 24.1636 11.4086 23.5241 11.7379 22.8516C11.7573 22.8122 11.7388 22.7654 11.6991 22.7499C11.0898 22.5116 10.5097 22.2212 9.95174 21.8913C9.9076 21.8648 9.90406 21.7997 9.94467 21.7685C10.0621 21.6778 10.1796 21.5835 10.2917 21.4882C10.312 21.4708 10.3402 21.4671 10.3641 21.4781C14.03 23.2034 17.9988 23.2034 21.6214 21.4781C21.6453 21.4662 21.6735 21.4699 21.6947 21.4873C21.8069 21.5826 21.9243 21.6778 22.0426 21.7685C22.0832 21.7997 22.0805 21.8648 22.0364 21.8913C21.4784 22.2276 20.8983 22.5116 20.2882 22.7489C20.2485 22.7645 20.2308 22.8122 20.2502 22.8516C20.5866 23.5232 20.9707 24.1627 21.3936 24.7693C21.4113 24.7949 21.4431 24.8059 21.4722 24.7967C23.3025 24.2131 25.1584 23.3326 27.0744 21.8822C27.0912 21.8694 27.1018 21.8501 27.1035 21.829C27.5706 16.8483 26.3212 12.5218 23.7917 8.68638C23.7855 8.67356 23.7749 8.66439 23.7625 8.6589ZM12.2853 19.2049C11.1817 19.2049 10.2722 18.1604 10.2722 16.8776C10.2722 15.5949 11.164 14.5504 12.2853 14.5504C13.4155 14.5504 14.3161 15.604 14.2984 16.8776C14.2984 18.1604 13.4066 19.2049 12.2853 19.2049ZM19.7284 19.2049C18.6248 19.2049 17.7154 18.1604 17.7154 16.8776C17.7154 15.5949 18.6071 14.5504 19.7284 14.5504C20.8586 14.5504 21.7592 15.604 21.7415 16.8776C21.7415 18.1604 20.8586 19.2049 19.7284 19.2049Z" fill="white"/>
</g>
</svg>
