<svg width="32" height="32" viewBox="0 0 32 32" fill="none" xmlns="http://www.w3.org/2000/svg">
<path fill-rule="evenodd" clip-rule="evenodd" d="M15.9962 5.6001C13.3965 5.60145 10.8821 6.52221 8.90248 8.19773C6.92289 9.87326 5.60725 12.1943 5.19079 14.7458C4.77433 17.2973 5.28422 19.9129 6.62929 22.125C7.97435 24.337 10.0669 26.0012 12.5327 26.8199C13.0767 26.9209 13.2816 26.5837 13.2816 26.297C13.2816 26.0104 13.2707 25.1792 13.2671 24.2704C10.2207 24.9285 9.57697 22.9849 9.57697 22.9849C9.08012 21.7228 8.36203 21.391 8.36203 21.391C7.36832 20.7167 8.43639 20.7293 8.43639 20.7293C9.53708 20.8068 10.1155 21.8526 10.1155 21.8526C11.0911 23.5168 12.6778 23.0354 13.3016 22.7541C13.3995 22.0491 13.6842 21.5695 13.9979 21.2972C11.5644 21.0232 9.00758 20.0892 9.00758 15.917C8.9925 14.835 9.39632 13.7886 10.1355 12.9943C10.0231 12.7203 9.64769 11.6132 10.2425 10.1095C10.2425 10.1095 11.1618 9.81738 13.2544 11.2255C15.0493 10.7375 16.9431 10.7375 18.738 11.2255C20.8288 9.81738 21.7463 10.1095 21.7463 10.1095C22.3429 11.6096 21.9675 12.7166 21.8551 12.9943C22.5966 13.7887 23.0013 14.8369 22.9848 15.9206C22.9848 20.1018 20.4226 21.0232 17.9854 21.2918C18.3771 21.6308 18.7271 22.2925 18.7271 23.3094C18.7271 24.7663 18.7144 25.9382 18.7144 26.297C18.7144 26.5873 18.912 26.9263 19.4669 26.8199C21.9331 26.0011 24.0258 24.3366 25.3708 22.1242C26.7159 19.9118 27.2255 17.2958 26.8086 14.744C26.3916 12.1923 25.0753 9.87122 23.0951 8.19598C21.1148 6.52074 18.5998 5.60059 15.9998 5.6001H15.9962Z" fill="white"/>
<path d="M9.19232 21.234C9.16875 21.2881 9.08171 21.3043 9.01099 21.2665C8.94027 21.2286 8.88768 21.1583 8.91307 21.1024C8.93846 21.0465 9.02368 21.0321 9.0944 21.0699C9.16513 21.1078 9.21952 21.1799 9.19232 21.234Z" fill="white"/>
<path d="M9.6365 21.7262C9.59895 21.745 9.55598 21.7502 9.51497 21.741C9.47395 21.7318 9.43743 21.7087 9.41165 21.6757C9.34093 21.5999 9.32641 21.4954 9.38081 21.4485C9.43521 21.4016 9.53314 21.4233 9.60386 21.499C9.67458 21.5747 9.6909 21.6793 9.6365 21.7262Z" fill="white"/>
<path d="M10.0682 22.352C10.0011 22.3989 9.88684 22.352 9.82338 22.2582C9.80583 22.2414 9.79187 22.2213 9.78234 22.199C9.7728 22.1766 9.76788 22.1527 9.76788 22.1284C9.76788 22.1042 9.7728 22.0802 9.78234 22.0579C9.79187 22.0356 9.80583 22.0154 9.82338 21.9986C9.89047 21.9535 10.0047 21.9986 10.0682 22.0906C10.1317 22.1825 10.1335 22.3051 10.0682 22.352Z" fill="white"/>
<path d="M10.6539 22.9576C10.594 23.0243 10.4725 23.0063 10.3728 22.9162C10.2731 22.826 10.2495 22.7034 10.3093 22.6385C10.3692 22.5736 10.4907 22.5916 10.594 22.68C10.6974 22.7683 10.7173 22.8927 10.6539 22.9576Z" fill="white"/>
<path d="M11.4753 23.311C11.4481 23.3958 11.3248 23.4336 11.2014 23.3976C11.0781 23.3615 10.9965 23.2605 11.0201 23.174C11.0437 23.0874 11.1688 23.0478 11.2939 23.0874C11.419 23.1271 11.4988 23.2227 11.4753 23.311Z" fill="white"/>
<path d="M12.3711 23.3723C12.3711 23.4607 12.2696 23.5364 12.139 23.5382C12.0085 23.54 11.9015 23.4679 11.9015 23.3795C11.9015 23.2912 12.003 23.2155 12.1336 23.2137C12.2642 23.2119 12.3711 23.2822 12.3711 23.3723Z" fill="white"/>
<path d="M13.2052 23.2336C13.2216 23.322 13.1309 23.4139 13.0003 23.4355C12.8698 23.4572 12.7555 23.4049 12.7392 23.3183C12.7229 23.2318 12.8172 23.138 12.9441 23.1146C13.071 23.0912 13.1889 23.1453 13.2052 23.2336Z" fill="white"/>
</svg>
