<svg width="24" height="14" viewBox="0 0 24 14" fill="none" xmlns="http://www.w3.org/2000/svg">
<g id="Group">
<path id="Vector" d="M13.5095 7.30366C13.5095 11.0058 10.5341 14.007 6.86394 14.007C3.19379 14.007 0.21817 11.0051 0.21817 7.30366C0.21817 3.60218 3.19357 0.600098 6.86394 0.600098C10.5343 0.600098 13.5095 3.6015 13.5095 7.30366Z" fill="white"/>
<path id="Vector_2" d="M20.7998 7.30356C20.7998 10.7883 19.3121 13.6144 17.4769 13.6144C15.6418 13.6144 14.1541 10.7883 14.1541 7.30356C14.1541 3.81878 15.6415 0.992676 17.4767 0.992676C19.3119 0.992676 20.7996 3.81787 20.7996 7.30356" fill="white"/>
<path id="Vector_3" d="M23.7818 7.30346C23.7818 10.425 23.2587 12.957 22.6131 12.957C21.9676 12.957 21.4447 10.4256 21.4447 7.30346C21.4447 4.18127 21.9678 1.6499 22.6131 1.6499C23.2584 1.6499 23.7818 4.18104 23.7818 7.30346Z" fill="white"/>
</g>
</svg>
