<?xml version="1.0" encoding="utf-8"?>
<!-- Generator: Adobe Illustrator 27.8.0, SVG Export Plug-In . SVG Version: 6.00 Build 0)  -->
<svg version="1.1" id="Ebene_1" xmlns="http://www.w3.org/2000/svg" xmlns:xlink="http://www.w3.org/1999/xlink" x="0px" y="0px"
	 viewBox="0 0 563.9 537.3" style="enable-background:new 0 0 563.9 537.3;" xml:space="preserve">
<style type="text/css">
	.st0{fill:#C5C5C5;}
	.st1{fill:#FFFFFF;}
</style>
<path class="st0" d="M-9.3,378.3c1.6,8.3,1.6,16.5,0,24.8C-9.3,394.8-9.3,386.5-9.3,378.3z"/>
<g>
	<path class="st1" d="M23.8,342.6c0-1.9,0-3.9,0-5.8c0.6-8.4,0.9-16.8,1.1-25.2c0.6-22.3,5-44,10.6-65.5
		c8.9-34.2,22.3-66.6,38.9-97.6c7.4-13.8,15.5-27.2,24.2-40.3c1.7-2.5,3.8-4.3,6.5-5.5c26.9-11.9,54.6-21.3,83.3-27.4
		c6.1-1.3,12.4-1.3,18.6-2c2.9-0.3,5.1,0.9,6.6,3.5c2.7,4.9,5.4,9.7,7.6,14.8c2.4,5.5,4,6.5,9.9,5.8c14.1-1.5,28.2-2.5,42.3-2.7
		c19.9-0.3,39.6,0.4,59.3,2.8c5.3,0.6,6.5-0.1,8.9-4.8c2.5-4.9,5.1-9.9,7.4-14.9c1.8-3.8,4.6-4.9,8.5-4.7c13,0.9,25.7,3.5,38.2,7
		c19.9,5.6,39.5,12.4,58.5,20.5c5.1,2.2,9.1,5.3,12.2,10c29,43.6,50.6,90.5,63.1,141.5c4.1,16.9,7.8,33.8,8.8,51.2
		c0.4,8,0.8,16.1,1.1,24.2c0.4,12.1,0.6,24.3,0.4,36.4c-0.1,10.5-0.5,20.9-0.9,31.4c-0.1,3.9-2.2,5.9-4.9,7.9
		c-13,9.4-26.4,17.9-40.4,25.7c-23.3,13.1-47.6,24-72.9,32.5c-3.7,1.2-7.4,2-11.3,2.5c-2.9,0.4-5.5-0.2-7.4-2.8
		c-9.2-12.7-17.5-26-24.6-40c-1.3-2.5-0.4-4.1,2-5.2c4.3-2,8.7-3.6,13-5.6c6.9-3,13.5-6.5,20.2-9.9c1.6-0.8,3.4-1.8,2.7-4.1
		c-0.6-2.1-2.5-2.8-4.6-3c-2-0.1-3.8,0.7-5.6,1.5c-25.3,10.7-51.4,18.6-78.7,22.5c-22.2,3.2-44.5,3.9-66.8,2.4
		c-35.4-2.4-69.2-11.3-101.8-25.1c-1.4-0.6-2.8-1.2-4.4-1.3c-2.4-0.1-4.7,0.3-5.4,2.8c-0.7,2.4,1.3,3.5,2.9,4.4
		c5.7,3.1,11.6,6.1,17.5,8.7c4.6,2,9.3,3.8,13.8,5.8c4,1.8,4.8,3.3,2.8,7.1c-7.1,13.7-15,26.9-24.3,39.2c-1.9,2.6-4.7,2.8-7.6,2.4
		c-7.8-0.8-14.9-4-22.2-6.6c-35.9-13-69-31.2-100.4-52.8c-5.4-3.7-6.5-8.2-6.5-13.7c0-7-0.2-13.9-0.8-20.8c0-2.2,0-4.4,0-6.7
		C24.5,356.5,24.5,349.5,23.8,342.6z"/>
	<path d="M321.2,284.5c0.4-13.2,5.9-27.2,18.4-37.8c19.8-16.8,48.3-12.7,64,8.9c14.3,19.6,13.2,48.8-2.5,67.4
		c-18.7,22.2-50.6,21.6-68.5-1.4C325.1,311.9,321.1,299.9,321.2,284.5z"/>
	<path d="M242.5,287.7c-0.2,14.9-4.9,28.1-15.6,38.7c-19,18.8-47.6,16.8-64.8-4.3c-16.1-19.6-15.8-50.3,0.7-69.6
		c22-25.8,61.1-19.5,75.1,12.2C241,272,242.6,279.7,242.5,287.7z"/>
</g>
</svg>
