<?xml version="1.0" encoding="utf-8"?>
<!-- Generator: Adobe Illustrator 27.8.0, SVG Export Plug-In . SVG Version: 6.00 Build 0)  -->
<svg version="1.1" id="Ebene_1" xmlns="http://www.w3.org/2000/svg" xmlns:xlink="http://www.w3.org/1999/xlink" x="0px" y="0px"
	 viewBox="0 0 563.9 537.3" style="enable-background:new 0 0 563.9 537.3;" xml:space="preserve">
<style type="text/css">
	.st0{fill:#FFFFFF;}
</style>
<path class="st0" d="M552,521.3c-3.1,0-4.7,0-6.3,0c-49.6,0-99.3-0.1-148.9,0.1c-4.2,0-6.6-1.3-9.1-4.6
	c-46.6-62.5-93.3-124.9-139.9-187.3c-1.5-2-3.1-4.1-5-6.5c-10.4,11.3-20.7,22.3-30.9,33.3c-49.4,53.4-98.9,106.8-148.3,160.3
	c-3.1,3.4-6.2,4.9-10.9,4.8c-13-0.4-26.1-0.1-41-0.1c70.5-76.1,140-151.3,209.8-226.7c-69.2-92.5-138.3-184.9-208-278.1
	c2.2-0.2,3.7-0.5,5.2-0.5c50.2,0,100.4,0,150.6-0.1c3.5,0,5.6,1.2,7.7,4c43.1,57.7,86.2,115.4,129.4,173.1c1.2,1.6,2.5,3.2,5.1,6.6
	c1.2-2.1,1.9-4.1,3.2-5.5c53.4-57.8,106.9-115.5,160.2-173.3c3.3-3.6,6.6-5,11.4-4.9c11.2,0.3,22.4,0.1,33.6,0.1
	c1.8,0,3.5,0.2,6.6,0.3c-65.4,70.6-129.9,140.4-194.9,210.5C405,324.8,478.1,422.4,552,521.3z M482,486.3c-1.7-2.5-2.8-4.2-4-5.8
	c-36.3-48.6-72.6-97.1-108.9-145.7c-69.8-93.3-139.5-186.5-209.2-279.9c-2.3-3.1-4.6-4.5-8.6-4.5c-21,0.2-41.9,0.1-62.9,0.1
	c-1.5,0-3,0.2-5.1,0.4c1.6,2.2,2.6,3.7,3.7,5.2c74.9,100.2,149.9,200.4,224.8,300.6c31.4,41.9,62.7,83.9,94.2,125.7
	c1.3,1.7,3.6,3.6,5.5,3.6C434.6,486.4,457.7,486.3,482,486.3z"/>
</svg>
