<svg width="64" height="64" viewBox="0 0 64 64" fill="none" xmlns="http://www.w3.org/2000/svg">
<path d="M25.5617 49.046C37.5019 44.885 48.8898 46.8245 60.0034 52.4749V52.6112C47.7591 49.0972 38.569 49.1385 27.561 52.8715L26.9996 53.0644C18.725 55.948 11.1456 55.8308 4.38198 52.6578L4 52.4749C9.64201 55.2304 17.916 51.6107 25.1109 49.1999L25.5617 49.046Z" fill="url(#paint0_linear_837_989)"/>
<path opacity="0.502048" d="M32.6788 54.5026C39.1477 52.5055 49.6113 52.2343 58.189 54.8618C47.4227 53.8648 43.8561 54.3946 34.1766 57.8244L33.683 58.0017C26.4071 60.6511 19.7337 60.7397 13.7864 57.8244L13.4505 57.6564C18.3585 59.1757 26.2099 56.4997 32.6788 54.5026Z" fill="url(#paint1_linear_837_989)"/>
<path fill-rule="evenodd" clip-rule="evenodd" d="M27.8508 4C34.3278 10.7213 39.2748 17.1034 42.6921 23.1463C46.1092 29.1891 49.2121 36.0799 52.0006 43.8185C48.0072 42.6263 44.9043 41.9491 42.6921 41.7867C40.4798 41.6243 38.023 41.6243 35.3214 41.7867L31.2462 39.6879L27.8508 4Z" fill="url(#paint2_linear_837_989)"/>
<path fill-rule="evenodd" clip-rule="evenodd" d="M28.4013 9.66174C26.1692 18.2026 24.1179 24.651 22.2473 29.0066C20.3768 33.3622 17.1236 39.5599 12.4876 47.5998C15.5845 46.3267 18.3835 45.2911 20.8844 44.4927C23.3853 43.6943 25.9071 43.0316 28.4496 42.5044L31.2463 39.6879L28.4013 9.66174Z" fill="url(#paint3_linear_837_989)"/>
<defs>
<linearGradient id="paint0_linear_837_989" x1="5.03846" y1="51.0707" x2="59.7387" y2="42.5306" gradientUnits="userSpaceOnUse">
<stop stop-color="#187AAD"/>
<stop offset="1" stop-color="#063872"/>
</linearGradient>
<linearGradient id="paint1_linear_837_989" x1="14.2801" y1="56.5659" x2="57.8547" y2="49.352" gradientUnits="userSpaceOnUse">
<stop stop-color="#187AAD"/>
<stop offset="1" stop-color="#063872"/>
</linearGradient>
<linearGradient id="paint2_linear_837_989" x1="35.2389" y1="3.22839" x2="56.061" y2="37.4312" gradientUnits="userSpaceOnUse">
<stop stop-color="white"/>
<stop offset="1" stop-color="#35EABF"/>
</linearGradient>
<linearGradient id="paint3_linear_837_989" x1="19.406" y1="46.8772" x2="30.3399" y2="34.4445" gradientUnits="userSpaceOnUse">
<stop stop-color="#00CBFF"/>
<stop offset="1" stop-color="#16798A"/>
</linearGradient>
</defs>
</svg>
