<svg width="64" height="64" viewBox="0 0 64 64" fill="none" xmlns="http://www.w3.org/2000/svg">
<path d="M6.15604 19.4532V44.5478C6.15604 46.1511 7.01228 47.629 8.3966 48.4307L30.127 60.9735C31.5123 61.7751 33.2238 61.7751 34.6081 60.9735L56.3385 48.4307C57.7238 47.629 58.5791 46.1511 58.5791 44.5478V19.4532C58.5791 17.8499 57.7229 16.372 56.3385 15.5703L34.6012 3.02654C33.2159 2.2249 31.5044 2.2249 30.12 3.02654L8.3976 15.5693C7.00532 16.371 6.15703 17.8569 6.15703 19.4522L6.15604 19.4532Z" fill="#213147"/>
<path d="M37.1063 36.8675L34.0095 45.3643C33.9239 45.5981 33.9239 45.8547 34.0095 46.0954L39.3389 60.7159L45.5086 57.1522L38.1097 36.8665C37.9386 36.4001 37.2773 36.4001 37.1063 36.8665V36.8675Z" fill="#12AAFF"/>
<path d="M43.3228 22.5733C43.1517 22.1068 42.4904 22.1068 42.3193 22.5733L39.2225 31.0701C39.137 31.3038 39.137 31.5604 39.2225 31.8011L47.9521 55.7439L54.1218 52.1803L43.3228 22.5733Z" fill="#12AAFF"/>
<path d="M32.3596 3.96842C32.5148 3.96842 32.6629 4.00721 32.8032 4.08479L56.3157 17.663C56.5881 17.8181 56.7592 18.1145 56.7592 18.4258V45.5742C56.7592 45.8855 56.5881 46.1809 56.3157 46.337L32.8032 59.9152C32.6709 59.9928 32.5157 60.0316 32.3596 60.0316C32.2035 60.0316 32.0563 59.9928 31.9161 59.9152L8.41152 46.345C8.13903 46.1898 7.96798 45.8935 7.96798 45.5821V18.4258C7.96798 18.1145 8.13903 17.8191 8.41152 17.663L31.924 4.08479C32.0563 4.00721 32.2114 3.96842 32.3596 3.96842ZM32.3596 0C31.5193 0 30.6869 0.217816 29.9321 0.64549L6.42753 14.2237C4.92586 15.087 4 16.6902 4 18.4258V45.5742C4 47.3098 4.92586 48.9041 6.42753 49.7763L29.94 63.3545C30.6869 63.7901 31.5272 64 32.3676 64C33.2079 64 34.0403 63.7822 34.7951 63.3545L58.3076 49.7763C59.8093 48.913 60.7351 47.3098 60.7351 45.5742V18.4258C60.7351 16.6902 59.8093 15.0959 58.3076 14.2237L34.7871 0.64549C34.0403 0.217816 33.1999 0 32.3596 0Z" fill="#9DCCEC"/>
<path d="M16.8149 55.7757L18.9779 49.8539L23.3267 53.4722L19.2583 57.1841L16.8149 55.7757Z" fill="#223147"/>
<path d="M30.3836 16.4804H24.4236C23.9801 16.4804 23.5754 16.7609 23.4202 17.1806L10.6451 52.2111L16.8149 55.7747L30.8818 17.1955C31.0141 16.8454 30.7575 16.4794 30.3836 16.4794V16.4804Z" fill="white"/>
<path d="M40.8097 16.4804H34.8498C34.4062 16.4804 34.0015 16.7609 33.8463 17.1806L19.2583 57.1831L25.4281 60.7467L41.3159 17.1955C41.4402 16.8454 41.1836 16.4794 40.8097 16.4794V16.4804Z" fill="white"/>
</svg>
