<svg width="53" height="64" viewBox="0 0 53 64" fill="none" xmlns="http://www.w3.org/2000/svg">
<path fill-rule="evenodd" clip-rule="evenodd" d="M35.8969 30.4672C41.315 34.7273 51.3168 42.5925 39.9347 54.3139C27.6723 66.9417 5.61874 58.2976 1.14296 44.05C-3.33276 29.8022 6.28962 16.7194 13.6639 12.8111C13.0896 12.4845 12.0808 2.2179 13.6639 1.42051C17.2033 -0.362014 26.3883 -0.581805 35.5735 1.42051C44.7582 3.42291 57.5923 13.7888 51.188 21.2501C46.0643 27.2189 34.4289 26.3227 29.2515 25.1286L34.7343 29.5435C35.0866 29.83 35.4783 30.1377 35.8969 30.4672ZM31.2947 47.3806C35.6349 41.0773 33.1558 35.1798 30.5993 32.025C35.4424 33.4254 38.8416 37.9548 38.5246 43.0951C38.1563 49.0648 32.9163 53.5969 26.8205 53.2193C20.7246 52.8413 16.0813 47.6953 16.4495 41.7261C16.604 39.2224 17.6157 36.9714 19.1882 35.2294C23.0076 31.8913 31.3668 43.3243 31.2947 47.3806Z" fill="#00FFB3"/>
<mask id="mask0_805_704" style="mask-type:alpha" maskUnits="userSpaceOnUse" x="0" y="2" width="53" height="59">
<path d="M39.9339 54.3139C52.1961 41.6864 39.6394 33.5342 34.7336 29.5435L29.2507 25.1288C34.4281 26.3231 46.0636 27.2191 51.1872 21.2503C57.5916 13.7892 45.8383 3.74672 34.477 3.04226C23.1154 2.33763 13.9672 7.88228 12.9538 9.85685C12.1429 11.4365 13.0889 12.4847 13.6631 12.8113C6.28884 16.7198 -3.33351 29.8022 1.14222 44.05C5.61796 58.2982 27.6715 66.9418 39.9339 54.3139Z" fill="#AAE166"/>
</mask>
<g mask="url(#mask0_805_704)">
<path d="M16.0915 23.7306C6.09385 24.3621 3.60759 21.9183 2.26482 21.4178C1.1086 22.3474 -1.80449 25.9751 -3.43206 28.0643C-3.78694 28.2509 -3.41269 30.2977 2.91276 30.1895C10.8195 30.0542 17.3831 25.0622 16.0915 23.7306Z" fill="#12CEAC"/>
<path d="M9.35288 33.4852C1.61852 36.2216 -0.90418 34.924 -2.07783 34.8463C-2.77491 35.8144 -4.23486 39.2312 -5.0362 41.1885C-5.27292 41.41 -4.5062 42.8832 0.45433 41.3731C6.65496 39.4854 10.6777 34.2067 9.35288 33.4852Z" fill="#12CEAC"/>
<path d="M8.1168 43.8862C0.382406 46.6232 -2.14029 45.3249 -3.31396 45.2473C-4.01102 46.2155 -5.47097 49.6328 -6.27231 51.5894C-6.50904 51.8117 -5.74231 53.2842 -0.781798 51.7742C5.41881 49.8869 9.44165 44.6076 8.1168 43.8862Z" fill="#12CEAC"/>
</g>
<path d="M42.7933 24.2226C47.8472 27.0973 47.9917 41.135 44.0274 47.5831C38.9575 44.649 39.3996 41.1396 38.7497 36.7782C38.0833 32.3066 40.8558 26.722 40.8558 26.722L42.7933 24.2226Z" fill="#00FFB3"/>
<path d="M31.055 29.6063C38.1797 31.5032 47.6769 25.3012 49.411 22.8864C47.261 24.0142 40.1616 27.3188 34.1315 24.8494C26.5944 21.7626 23.9305 27.7093 31.055 29.6063Z" fill="white"/>
<path d="M25.5793 14.1317C16.9213 14.7589 14.6359 13.259 13.4754 12.799C12.4708 13.6681 10.0933 14.6265 8.67595 16.576C8.36799 16.751 9.12106 17.0694 14.5977 16.9433C21.4436 16.7858 26.6921 15.3649 25.5793 14.1317Z" fill="#12CEAC"/>
<path d="M34.9591 21.117C38.8837 21.3603 42.2575 18.4422 42.4944 14.599C42.7314 10.756 39.7421 7.4432 35.8175 7.19988C31.8928 6.95655 28.5192 9.87462 28.2822 13.7178C28.0451 17.5608 31.0344 20.8735 34.9591 21.117Z" fill="#63BB7A"/>
<path d="M35.6218 19.9942C39.5466 20.2375 42.9202 17.3195 43.1573 13.4763C43.3943 9.63328 40.405 6.32044 36.4802 6.07712C32.5557 5.8338 29.1821 8.75186 28.9449 12.595C28.708 16.4381 31.6973 19.7507 35.6218 19.9942Z" fill="#1A1A1A"/>
<path d="M35.0915 14.14C36.2361 14.211 37.2201 13.36 37.2893 12.239C37.3585 11.1182 36.4866 10.1518 35.3418 10.081C34.1972 10.01 33.2132 10.8611 33.1442 11.9819C33.075 13.1029 33.9469 14.069 35.0915 14.14Z" fill="white"/>
<path d="M49.0548 19.0803C49.5453 19.1108 49.9671 18.746 49.9967 18.2656C50.0264 17.7852 49.6526 17.3712 49.1621 17.3407C48.6715 17.3103 48.2498 17.675 48.2201 18.1554C48.1906 18.6358 48.5642 19.05 49.0548 19.0803Z" fill="#387D78"/>
<path d="M17.0787 53.3545C18.0447 55.1571 15.7756 57.6317 12.2954 59.4134C8.81507 61.1952 5.3141 61.3716 4.47562 59.8068C3.63718 58.2421 5.77878 55.5292 9.25894 53.7473C12.7393 51.9656 16.1125 51.5514 17.0787 53.3545Z" fill="#7E5BF6"/>
<path d="M21.0058 57.1278C22.0276 57.3208 22.313 58.9669 21.9447 60.8607C21.5767 62.755 20.5592 64.1539 19.6724 63.9864C18.7855 63.8184 18.3651 62.1469 18.7334 60.2531C19.1016 58.3593 19.9839 56.9344 21.0058 57.1278Z" fill="#7E5BF6"/>
</svg>
