<svg width="64" height="64" viewBox="0 0 64 64" fill="none" xmlns="http://www.w3.org/2000/svg">
<path d="M26.9369 4.42158C29.7075 6.04166 32.1532 8.12217 33.5215 11.0724L44.7409 4.42158L57.8245 10.6802L60.8004 22.123L34.0174 55.3942L28.3051 60.8172L6.96083 34.7425C5.86625 33.4976 4.78878 32.0822 3.74551 30.5133C2.65093 28.9614 1.76159 27.3243 1.09458 25.6019C0.359158 23.8795 0 22.1912 0 20.52C0 16.7171 0.718317 13.4428 2.18916 10.6802C3.59158 7.91753 5.60971 5.78585 8.20934 4.2681C10.8261 2.7674 13.9046 2 17.4619 2C20.968 2 24.1149 2.81856 26.9369 4.42158Z" fill="#F9347B"/>
<path d="M29.3313 31.4171H11.5786V53.3478H29.3313V31.4171Z" fill="#F9347B"/>
<path d="M29.0063 61.8404C29.793 62.6078 30.7679 63 31.9138 63L60.903 62.5907C62.066 62.5907 63.1264 62.4372 63.8105 61.414C64.6998 60.0839 62.3396 54.9849 59.2269 54.6268C56.1313 54.2516 47.426 54.2346 42.4662 53.7912C42.0728 53.7571 41.9702 53.1943 42.1071 52.8191C42.4662 51.7618 56.901 34.7255 56.901 34.7255C57.9955 33.4806 59.073 32.0651 60.1163 30.5133C61.2109 28.9444 62.1002 27.3072 62.7843 25.5848C63.5026 23.8625 63.8789 22.1742 63.8789 20.5029C63.8789 16.7 63.1435 13.4258 61.6726 10.6631C60.2702 7.90048 58.2521 5.7688 55.6525 4.2681C53.0357 2.75035 49.9572 2 46.3999 2C42.9109 2 39.7469 2.80151 36.9249 4.42158C34.1543 6.0246 31.7086 8.12217 30.3403 11.0554C29.5365 12.7777 29.0747 15.5745 29.5365 17.4674C29.9299 19.0193 30.3232 19.4115 31.5033 19.8037C32.6834 20.196 33.0597 19.3433 33.453 17.4674C33.8464 15.5916 34.4963 13.4769 35.4199 11.9933C36.6 10.1174 38.772 8.73609 40.5165 8.08806C41.9873 7.54235 44.433 7.08191 46.3999 7.30361C49.9059 7.69583 52.3858 8.94073 54.2158 11.0554C56.0629 13.17 57.4825 16.683 57.072 19.3433L57.0549 19.4286C56.8154 21.0657 56.4734 23.2997 55.6525 24.8857C54.8144 26.5057 52.2661 29.6947 50.6927 31.5194L29.0063 56.2127C28.288 56.946 27.9117 57.8669 27.9117 59.0266C27.9117 60.118 28.288 61.0559 29.0063 61.8404Z" fill="white"/>
<path d="M7.52522 40.5236C7.52522 40.336 7.52522 39.671 7.52522 38.5625C7.57653 37.3858 7.59363 36.0727 7.59363 34.6232C7.64494 33.1225 7.64494 31.6559 7.59363 30.2575C7.59363 28.808 7.54232 27.6824 7.45681 26.8809C7.35419 25.8577 7.33709 24.9368 7.3884 24.1353C7.47391 23.3509 7.52522 22.447 7.52522 21.475C7.52522 20.8099 7.54232 20.2301 7.59363 19.7185C7.64494 19.1557 7.76466 18.6782 7.95279 18.3031C8.14092 17.8767 8.43167 17.5868 8.85924 17.3992C9.28681 17.1605 9.90251 17.0411 10.6892 17.0411C11.4418 17.0411 12.1772 17.2969 12.8784 17.8085C13.6309 18.3372 14.0756 19.0364 14.2124 19.9231L15.2728 33.9069L15.4951 51.7789L24.9359 51.489C25.2608 51.489 25.7397 51.6595 26.3554 51.9835C27.0053 52.2564 27.3302 52.6145 27.3302 53.0408C27.3302 53.416 27.1763 53.74 26.8343 54.0129C26.5093 54.2516 26.1159 54.4733 25.6371 54.6609C25.2266 54.7973 24.7648 54.9167 24.3031 55.002C23.8755 55.0531 23.5676 55.0702 23.3795 55.0702C23.0032 55.1213 22.4388 55.1725 21.6863 55.2237C20.9338 55.2237 20.1471 55.2237 19.2919 55.2237C18.5052 55.2237 17.7185 55.2237 16.966 55.2237C16.2134 55.2237 15.649 55.2237 15.2728 55.2237C14.811 55.4454 14.2466 55.5477 13.5796 55.4965C12.9297 55.4454 12.3824 55.4283 11.9719 55.4283H9.78279C9.40653 55.4283 8.97896 55.326 8.51718 55.1384C8.08961 54.9167 7.76466 54.6609 7.52522 54.371V40.5236Z" fill="white"/>
</svg>
