<svg width="64" height="64" viewBox="0 0 64 64" fill="none" xmlns="http://www.w3.org/2000/svg">
<rect width="64" height="64" rx="32" fill="black"/>
<g clip-path="url(#clip0_837_943)">
<g opacity="0.2">
<path d="M43.908 41.8667L46.6088 32.7919L55.3437 32.7919L52.5477 41.8667H43.908Z" fill="#FF99F0"/>
<path d="M9.04505 41.8667L11.7458 32.7919L20.4809 32.7919L17.6849 41.8667H9.04505Z" fill="#FF6D01"/>
<path d="M37.9128 32.792L40.6136 23.7172L49.3485 23.7172L46.5525 32.792H37.9128Z" fill="#FAC670"/>
<path d="M20.4813 32.792L23.182 23.7172L31.9171 23.7172L29.1211 32.792H20.4813Z" fill="#DFFF67"/>
<path d="M26.4766 41.8667L29.1773 32.7919L37.9125 32.7919L35.1163 41.8667H26.4766Z" fill="#38D996"/>
</g>
<path d="M42.8629 40.2828L45.5637 31.208L54.2987 31.2079L51.5027 40.2828H42.8629Z" fill="#FF99F0"/>
<path d="M8 40.283L10.7007 31.2082L19.4359 31.2082L16.6398 40.283H8Z" fill="#FF6D01"/>
<path d="M36.8677 31.2082L39.5685 22.1334L48.3037 22.1333L45.5077 31.2082H36.8677Z" fill="#FAC670"/>
<path d="M19.4362 31.2082L22.1369 22.1334L30.8721 22.1333L28.076 31.2082H19.4362Z" fill="#DFFF67"/>
<path d="M25.4315 40.283L28.1323 31.2082L36.8675 31.2082L34.0713 40.283H25.4315Z" fill="#38D996"/>
</g>
<defs>
<clipPath id="clip0_837_943">
<rect width="47.4667" height="20" fill="white" transform="translate(8 22)"/>
</clipPath>
</defs>
</svg>
