<svg width="64" height="64" viewBox="0 0 64 64" fill="none" xmlns="http://www.w3.org/2000/svg">
<path d="M52.5411 0H58V64H52.5411V0Z" fill="white"/>
<path d="M8.73087 5.44977L8.73087 0L36.1655 -1.1972e-06L36.1655 5.44977L8.73087 5.44977Z" fill="white"/>
<path d="M43.2329 0H48.6918V54.7074H43.2329V0Z" fill="white"/>
<path d="M6.00001 0H11.4589V64H6.00001V0Z" fill="white"/>
<path d="M15.3082 9.29262H20.7671V64H15.3082V9.29262Z" fill="white"/>
<path d="M24.6155 9.29262H30.0744V54.7074H24.6155V9.29262Z" fill="white"/>
<path d="M33.9237 0H39.3826V54.7074H33.9237V0Z" fill="white"/>
<path d="M15.3774 14.7424L15.3774 9.29262L30.0745 9.29262L30.0745 14.7424L15.3774 14.7424Z" fill="white"/>
<path d="M33.9947 54.7072L33.9947 49.2574L48.6918 49.2574L48.6918 54.7072L33.9947 54.7072Z" fill="white"/>
<path d="M43.2318 54.7072L43.2318 49.2574L48.6907 49.2574L48.6907 54.7072L43.2318 54.7072Z" fill="white"/>
<path d="M24.6173 63.9998L24.6173 58.55L56.8109 58.55L56.8109 63.9998L24.6173 63.9998Z" fill="white"/>
</svg>
