<svg width="64" height="64" viewBox="0 0 64 64" fill="none" xmlns="http://www.w3.org/2000/svg">
<g clip-path="url(#clip0_837_936)">
<path d="M64.087 0H-0.0874329V64.1744H64.087V0Z" fill="#F3C331"/>
<path d="M19.818 27.8253C18.2958 27.8295 17.2621 28.8531 17.2699 30.3483C17.2777 31.788 18.3984 32.9051 19.8359 32.9046C21.2706 32.9041 22.3547 31.7839 22.3487 30.308C22.3428 28.8293 21.3155 27.8212 19.818 27.8253Z" fill="black"/>
<path d="M46.6834 29.6744C46.4284 28.7313 45.7128 28.0652 44.8439 27.8505C45.1575 28.1275 45.397 28.4956 45.5146 28.9296C45.8342 30.1098 45.1365 31.3252 43.9567 31.6447C43.157 31.8613 42.3421 31.6095 41.7996 31.0583C42.2093 32.4546 43.4303 33.1527 44.8339 32.7787C46.2599 32.3987 47.0578 31.0597 46.6834 29.6744Z" fill="black"/>
<path d="M54.6902 23.8187C56.6446 23.4603 58.0775 22.6559 58.0775 22.6559L51.1972 17.9356L51.493 20.2067H44.111V20.2081C44.0959 20.2081 44.0813 20.2071 44.0666 20.2071C38.4568 20.2071 33.9086 24.7549 33.9086 30.3652C33.9086 32.6789 34.6836 34.8104 35.9856 36.518L32.0059 40.526L32.0046 40.5274L32.0032 40.526L27.9357 36.4594C29.2106 34.7619 29.9665 32.6519 29.9665 30.3652C29.9665 24.7819 25.4613 20.252 19.8881 20.2094V20.2076H12.5061L12.8018 17.9365L5.9216 22.6568C5.9216 22.6568 7.35496 23.4612 9.30884 23.8196C10.1558 23.9753 10.5939 23.9666 11.0256 23.978C11.2678 23.9844 11.5658 23.9895 11.9 23.994C10.4941 25.7369 9.65081 27.9522 9.65081 30.3657C9.65081 35.9755 14.1986 40.5237 19.8089 40.5237C21.7041 40.5237 23.4777 40.0032 24.9962 39.0991L29.3091 43.412L32.0032 46.1038L32.0046 46.1024L32.0059 46.1038L34.6982 43.412L38.4252 39.685L38.9631 39.1471C40.4628 40.0206 42.2057 40.5237 44.0666 40.5237C49.6764 40.5237 54.2247 35.976 54.2247 30.3657C54.2247 27.9531 53.3819 25.7383 51.9769 23.9954C52.3623 23.9904 52.7016 23.9849 52.974 23.9776C53.4057 23.9666 53.8438 23.9748 54.6907 23.8192L54.6902 23.8187ZM13.4606 30.3647C13.4606 26.8612 16.2985 24.0211 19.8006 24.0165C19.8057 24.0165 19.8121 24.0165 19.8166 24.0165C23.3197 24.0206 26.1581 26.8612 26.1581 30.3647C26.1581 33.8683 23.3156 36.7135 19.8093 36.7135C16.3031 36.7135 13.4606 33.871 13.4606 30.3647ZM44.0661 36.7135C40.5599 36.7135 37.7174 33.871 37.7174 30.3647C37.7174 26.8585 40.5599 24.016 44.0661 24.016C47.5724 24.016 50.4149 26.8585 50.4149 30.3647C50.4149 33.871 47.5724 36.7135 44.0661 36.7135Z" fill="black"/>
</g>
<defs>
<clipPath id="clip0_837_936">
<rect width="64" height="64" rx="32" fill="white"/>
</clipPath>
</defs>
</svg>
