<svg width="64" height="64" viewBox="0 0 64 64" fill="none" xmlns="http://www.w3.org/2000/svg">
<path fill-rule="evenodd" clip-rule="evenodd" d="M44.8213 18.0267L40.4978 24.8783H24.8284L22.9262 18.0267H16.0711L24.8711 49.6463H31.7191L51.6693 18.0267H44.8213ZM29.6178 42.1227L26.6062 31.3067H36.4373L29.6107 42.1227H29.6178Z" fill="white"/>
<path fill-rule="evenodd" clip-rule="evenodd" d="M32 0C23.5131 0 15.3737 3.37142 9.37258 9.37258C3.37142 15.3737 0 23.5131 0 32C0 40.4869 3.37142 48.6263 9.37258 54.6274C15.3737 60.6286 23.5131 64 32 64C40.4869 64 48.6263 60.6286 54.6274 54.6274C60.6286 48.6263 64 40.4869 64 32C64 23.5131 60.6286 15.3737 54.6274 9.37258C48.6263 3.37142 40.4869 0 32 0ZM32 56.672C25.4583 56.6654 19.1863 54.064 14.5603 49.4387C9.93424 44.8133 7.33197 38.5417 7.32444 32C7.32444 18.4 18.3893 7.32444 31.9964 7.32444C38.5376 7.33197 44.8086 9.93375 49.4339 14.559C54.0591 19.1843 56.6609 25.4553 56.6684 31.9964C56.6684 45.5964 45.5964 56.6649 31.9929 56.6649V56.672H32Z" fill="white"/>
</svg>
