<svg width="64" height="64" viewBox="0 0 64 64" fill="none" xmlns="http://www.w3.org/2000/svg">
<g clip-path="url(#clip0_805_679)">
<path d="M63.8873 34.9765C63.8873 35.0392 63.8873 35.1018 63.8873 35.1645C62.5094 50.4466 50.3591 62.4093 35.5154 63.9125C35.39 63.9125 35.3273 63.9125 35.202 63.9125L63.8873 34.9765Z" fill="#ACE730"/>
<path d="M46.0342 3.34438C45.2201 2.96858 44.4057 2.5928 43.5916 2.27964C41.9631 1.65332 40.2722 1.15225 38.5184 0.776453C36.3891 0.33803 34.2596 0.0875168 32.0048 0.0875168C30.9401 0.0875168 29.8753 0.150137 28.8106 0.212769C21.42 0.964355 14.8437 4.15858 9.77055 9.0439C9.45738 9.35703 9.0816 9.73284 8.76843 10.046C3.94578 15.1192 0.814219 21.8208 0.125271 29.1488C0.0626394 30.0882 0 31.0277 0 32.0298C0 34.4098 0.250534 36.727 0.751589 38.982C1.12738 40.6732 1.62843 42.3013 2.25474 43.9299C2.63053 44.8066 3.00634 45.6837 3.38212 46.4978C4.1337 47.9383 4.94793 49.3161 5.8874 50.6316L11.1484 45.3077L44.9694 11.1107L50.2307 5.78703C48.9779 4.91016 47.5374 4.09597 46.0342 3.34438ZM8.07949 38.1052C8.01688 37.9172 7.95424 37.6668 7.95424 37.4788C7.57843 35.7253 7.39054 33.9087 7.39054 32.0925C7.39054 25.7666 9.77055 19.8166 14.0921 15.2444L14.969 14.3676C19.6037 9.92073 25.6163 7.47809 32.0674 7.47809C33.7585 7.47809 35.4494 7.66597 37.0779 7.97914C37.3286 8.04175 37.5789 8.10439 37.8296 8.16703L8.07949 38.1052Z" fill="#ACE730"/>
<path d="M20.9859 62.1632C20.1716 61.8499 19.4201 61.5368 18.6685 61.2238C17.1027 60.472 15.5995 59.6579 14.159 58.6558L58.377 13.9992C59.3164 15.3771 60.1932 16.8176 60.8822 18.3834C61.258 19.1976 61.6337 20.0119 61.947 20.8261L20.9859 62.1632Z" fill="#ACE730"/>
</g>
<defs>
<clipPath id="clip0_805_679">
<rect width="64" height="64" fill="white"/>
</clipPath>
</defs>
</svg>
