<svg width="64" height="64" viewBox="0 0 64 64" fill="none" xmlns="http://www.w3.org/2000/svg">
<g clip-path="url(#clip0_837_999)">
<mask id="mask0_837_999" style="mask-type:luminance" maskUnits="userSpaceOnUse" x="0" y="10" width="64" height="44">
<path d="M64 10H0V54H64V10Z" fill="white"/>
</mask>
<g mask="url(#mask0_837_999)">
<path d="M85.1205 49.3683C82.4579 49.3683 80.0694 48.7828 77.9512 47.6118C75.8347 46.4426 74.2948 44.7666 73.3333 42.5839L77.0863 40.7075C77.7274 42.1507 78.7461 43.2571 80.1411 44.0271C81.5359 44.797 83.1957 45.182 85.1205 45.182C86.4348 45.182 87.6058 44.9833 88.6318 44.5804C89.6596 44.1811 90.485 43.5866 91.11 42.8006C91.7366 42.0145 92.0481 41.0619 92.0481 39.9375C92.0481 38.6554 91.7115 37.6939 91.0383 37.0511C90.365 36.4102 89.4662 35.9285 88.3435 35.608C87.2208 35.2875 86.0014 34.9992 84.6872 34.7431C83.4679 34.4853 82.2342 34.1737 80.9826 33.8048C79.7328 33.436 78.5689 32.9221 77.4946 32.265C76.4203 31.6078 75.5626 30.734 74.9215 29.6419C74.2787 28.5532 73.9582 27.1726 73.9582 25.5057C73.9582 23.742 74.4399 22.1609 75.4014 20.7661C76.3647 19.3713 77.6629 18.2647 79.2994 17.4464C80.9343 16.6281 82.7463 16.2199 84.7356 16.2199C87.1725 16.2199 89.3856 16.7893 91.3749 17.9281C93.3624 19.0669 94.8397 20.7267 95.8012 22.9076L92.0965 24.7824C91.4537 23.4054 90.4922 22.3292 89.2101 21.5593C87.9263 20.7894 86.3864 20.4044 84.5906 20.4044C83.4679 20.4044 82.4329 20.6139 81.4874 21.0311C80.5421 21.4483 79.7882 22.0249 79.226 22.7626C78.6655 23.5003 78.3845 24.3668 78.3845 25.3607C78.3845 26.58 78.7282 27.5182 79.4194 28.1754C80.1087 28.8326 81.031 29.3303 82.1858 29.6669C83.3407 30.0035 84.5745 30.3169 85.8905 30.6052C87.108 30.8612 88.3435 31.1746 89.5951 31.5434C90.8449 31.9123 91.9837 32.4261 93.0115 33.0832C94.0375 33.7405 94.87 34.6141 95.5129 35.7047C96.1539 36.795 96.4744 38.19 96.4744 39.891C96.4744 41.7514 95.9695 43.395 94.9596 44.8221C93.9498 46.2491 92.5854 47.3647 90.87 48.1651C89.1528 48.9672 87.237 49.3683 85.1205 49.3683ZM121.001 36.4261C121.001 34.2131 120.536 32.2237 119.605 30.4601C118.676 28.6964 117.352 27.3016 115.637 26.2738C113.92 25.2478 111.891 24.7356 109.551 24.7356C107.209 24.7356 105.148 25.289 103.368 26.3955C101.588 27.5021 100.201 28.9846 99.2068 30.845C98.2113 32.7055 97.7153 34.7592 97.7153 37.0028C97.7153 39.4093 98.2508 41.5418 99.3268 43.4022C100.401 45.2626 101.877 46.7308 103.753 47.8052C105.63 48.8795 107.753 49.4166 110.127 49.4166C112.405 49.4166 114.441 48.8938 116.239 47.8535C118.034 46.8114 119.462 45.2947 120.52 43.3055L117.2 41.574C116.462 42.9205 115.469 43.916 114.217 44.5572C112.965 45.1999 111.587 45.5187 110.079 45.5187C108.38 45.5187 106.896 45.1103 105.63 44.2921C104.362 43.4738 103.391 42.3763 102.718 40.9974C102.306 40.1524 102.062 39.2326 101.95 38.2543H121.001V36.4261ZM105.846 29.5218C106.904 28.9291 108.122 28.6319 109.503 28.6319C110.881 28.6319 112.092 28.913 113.134 29.4736C114.176 30.0357 115.019 30.8218 115.66 31.8317C116.199 32.6799 116.509 33.6545 116.618 34.7413H102.24C102.441 33.7414 102.766 32.7997 103.296 31.9516C103.937 30.9256 104.788 30.1162 105.846 29.5218ZM161.113 30.3885C160.278 28.6409 159.059 27.2782 157.457 26.2988C155.852 25.3212 153.911 24.8306 151.634 24.8306C149.869 24.8306 148.265 25.1761 146.822 25.8654C145.509 26.4923 144.438 27.3526 143.55 28.3908V25.3607H139.221V48.8867H143.55V37.1961C143.55 35.5918 143.863 34.1647 144.489 32.9131C145.113 31.6634 145.996 30.6767 147.135 29.9551C148.275 29.2336 149.566 28.8719 151.008 28.8719C152.548 28.8719 153.846 29.2497 154.905 30.0035C155.965 30.7573 156.758 31.7511 157.286 32.9866C157.816 34.222 158.081 35.5595 158.081 37.0028V48.8867H162.363V36.6178C162.363 34.2131 161.945 32.136 161.113 30.3885ZM123.052 14.5833H127.382V48.8867H123.052V14.5833ZM133.399 20.5011C132.885 20.5011 132.405 20.374 131.956 20.1161C131.507 19.8601 131.154 19.5073 130.898 19.0579C130.64 18.6085 130.513 18.1125 130.513 17.5664C130.513 17.0221 130.64 16.5243 130.898 16.0749C131.154 15.6254 131.507 15.2745 131.956 15.0166C132.405 14.7606 132.885 14.6317 133.399 14.6317C133.944 14.6317 134.425 14.7606 134.842 15.0166C135.26 15.2745 135.596 15.6254 135.852 16.0749C136.11 16.5243 136.237 17.0221 136.237 17.5664C136.237 18.1125 136.11 18.6085 135.852 19.0579C135.596 19.5073 135.26 19.8601 134.842 20.1161C134.425 20.374 133.944 20.5011 133.399 20.5011ZM131.234 25.3607H135.564V48.8867H131.234V25.3607ZM167.662 20.5011C167.148 20.5011 166.668 20.374 166.218 20.1161C165.77 19.8601 165.417 19.5073 165.161 19.0579C164.902 18.6085 164.776 18.1125 164.776 17.5664C164.776 17.0221 164.902 16.5243 165.161 16.0749C165.417 15.6254 165.77 15.2745 166.218 15.0166C166.668 14.7606 167.148 14.6317 167.662 14.6317C168.206 14.6317 168.688 14.7606 169.106 15.0166C169.522 15.2745 169.859 15.6254 170.115 16.0749C170.374 16.5243 170.5 17.0221 170.5 17.5664C170.5 18.1125 170.374 18.6085 170.115 19.0579C169.859 19.5073 169.522 19.8601 169.106 20.1161C168.688 20.374 168.206 20.5011 167.662 20.5011ZM165.498 25.3607H169.826V48.8867H165.498V25.3607ZM29.3334 39.3334C21.9018 40.7097 16.0431 46.5684 14.6667 54C13.2903 46.5684 7.43161 40.7097 0 39.3334C6.64441 37.9846 11.7537 32.4082 12.398 25.5343C13.0048 17.9427 18.4796 11.7236 25.6993 10C20.4634 12.512 16.8483 17.8628 16.8483 24.058C16.8483 31.6036 22.2112 37.8966 29.3334 39.3334ZM47.3184 39.942C47.3184 46.1372 43.7033 51.488 38.4674 54C45.6871 52.2764 51.1618 46.0573 51.7688 38.4658C52.4131 31.5918 57.5223 26.0154 64.1667 24.6666C56.7351 23.2903 50.8764 17.4316 49.5 10C48.1236 17.4316 42.2649 23.2903 34.8333 24.6666C41.9555 26.1035 47.3184 32.3964 47.3184 39.942Z" fill="white"/>
</g>
</g>
<defs>
<clipPath id="clip0_837_999">
<rect width="64" height="44" fill="white" transform="translate(0 10)"/>
</clipPath>
</defs>
</svg>
