<svg width="64" height="64" viewBox="0 0 64 64" fill="none" xmlns="http://www.w3.org/2000/svg">
<path fill-rule="evenodd" clip-rule="evenodd" d="M36.6554 21.8667C36.6554 22.8976 35.8314 23.7333 34.8149 23.7333C34.0722 23.7333 33.4321 23.287 33.1414 22.6444H22.9861L19.4074 27H43.7684C43.9727 26.1949 44.6933 25.6 45.5508 25.6C46.5673 25.6 47.3913 26.4357 47.3913 27.4667C47.3913 28.4976 46.5673 29.3333 45.5508 29.3333C44.8081 29.3333 44.1681 28.887 43.8773 28.2444H18.385H18.0977H0V27H17.8103L22.2274 21.6239L22.4114 21.4H22.6988H33.0325C33.2368 20.5949 33.9573 20 34.8149 20C35.8314 20 36.6554 20.8357 36.6554 21.8667Z" fill="white"/>
<path fill-rule="evenodd" clip-rule="evenodd" d="M26.9737 40.3556C26.9737 39.3246 27.7991 38.4889 28.8173 38.4889C29.5614 38.4889 30.2025 38.9352 30.4938 39.5778H40.9742L44.559 35.2222H10.9372C10.7326 36.0273 10.0108 36.6222 9.15165 36.6222C8.13349 36.6222 7.30801 35.7865 7.30801 34.7556C7.30801 33.7246 8.13349 32.8889 9.15165 32.8889C9.89573 32.8889 10.5369 33.3352 10.8282 33.9778H45.5833H45.8711H64V35.2222H46.159L41.7341 40.5983L41.5498 40.8222H41.2619H30.6029C30.3982 41.6273 29.6764 42.2222 28.8173 42.2222C27.7991 42.2222 26.9737 41.3865 26.9737 40.3556Z" fill="white"/>
<path fill-rule="evenodd" clip-rule="evenodd" d="M19.5266 31.7037C19.2735 32.3942 18.5907 32.8889 17.7881 32.8889C16.77 32.8889 15.9447 32.0929 15.9447 31.1111C15.9447 30.1293 16.77 29.3333 17.7881 29.3333C18.5907 29.3333 19.2735 29.8281 19.5266 30.5185H59.5711V31.7037H19.5266Z" fill="white"/>
</svg>
