<svg width="64" height="64" viewBox="0 0 64 64" fill="none" xmlns="http://www.w3.org/2000/svg">
<path d="M61.31 38.7786L61.2292 38.8635C61.1914 38.9026 61.1531 38.9413 61.1145 38.9799L38.9499 61.1088C35.0888 64.9637 28.8287 64.9637 24.9676 61.1088L18.8469 54.9982C18.4129 54.5666 18.412 53.8649 18.844 53.4314C18.9711 53.3039 19.1273 53.2093 19.2991 53.1556C25.8596 51.1305 31.1903 48.7927 35.291 46.1426C45.0569 39.8309 53.7299 37.3764 61.31 38.7786ZM56.6632 20.5751C64.8465 23.1538 63.8914 29.1738 64 31.5471C55.038 26.8477 44.2565 28.5702 31.6554 36.7141C22.2632 42.7842 14.3957 45.2869 8.05308 44.2221C1.71043 43.1573 0.283608 35.4112 0 33.3528C6.96947 36.8767 16.3095 34.8541 28.0198 27.2858C38.9321 20.2334 48.4799 17.9964 56.6632 20.5751ZM38.9499 2.89115L44.7011 8.63234C45.1343 9.06453 45.1349 9.76627 44.7027 10.1996C44.5485 10.3542 44.3521 10.4597 44.1382 10.5028C35.8124 12.1801 29.1539 14.6316 24.1626 17.8575C15.6096 23.3852 8.321 25.9545 2.29685 25.5654L2.29747 25.5637L24.9676 2.89115C28.8287 -0.963717 35.0888 -0.963717 38.9499 2.89115Z" fill="url(#paint0_linear_805_654)"/>
<defs>
<linearGradient id="paint0_linear_805_654" x1="32" y1="-3.15963e-06" x2="31.3725" y2="107.922" gradientUnits="userSpaceOnUse">
<stop stop-color="#3068EF"/>
<stop offset="1" stop-color="#1322AC"/>
</linearGradient>
</defs>
</svg>
