<svg width="64" height="64" viewBox="0 0 64 64" fill="none" xmlns="http://www.w3.org/2000/svg">
<path d="M63.1431 35.488L60.7538 26.1743C60.6854 25.9004 60.4647 25.6874 60.1908 25.6188L50.9609 23.3436C50.8923 23.3285 50.8162 23.3209 50.7477 23.3209C50.5271 23.2981 50.2988 23.3665 50.1314 23.5339L34.5553 39.11L32.4933 31.0594C32.4247 30.7855 32.2041 30.5724 31.9302 30.504L24.0014 28.5484L39.5698 12.9799C39.6612 12.8886 39.7145 12.7745 39.7525 12.6603C39.8209 12.5082 39.8438 12.3332 39.7981 12.1658L37.4089 2.85207C37.3403 2.57814 37.1196 2.36508 36.8458 2.2966L27.6158 0.021451C27.4331 -0.0242043 27.2505 0.00623252 27.0907 0.0823247H27.0831C27.0374 0.105152 26.9994 0.13559 26.9537 0.166026C26.9157 0.196463 26.8624 0.211681 26.832 0.249728L0.260665 26.8059C0.260665 26.8059 0.21501 26.882 0.184575 26.92C0.0171716 27.1179 -0.0437026 27.3766 0.0323895 27.6277L2.61191 36.6294C2.688 36.8881 2.88585 37.0859 3.13695 37.1545L11.781 39.635L14.2617 48.2715C14.3377 48.5302 14.5355 48.728 14.7866 48.7966L23.4612 51.2847L25.9493 59.9593C26.0255 60.218 26.2233 60.4158 26.4743 60.4843L35.5141 63.079C35.5826 63.1018 35.6587 63.1094 35.7271 63.1094C35.7424 63.1094 35.7577 63.1018 35.7804 63.1018C35.7804 63.1018 35.7881 63.1018 35.7957 63.1018C35.9935 63.1018 36.1914 63.0257 36.3435 62.8736L62.9225 36.2945C63.0138 36.2032 63.0671 36.0891 63.1051 35.975C63.1735 35.8228 63.1964 35.6478 63.1508 35.4804L63.1431 35.488ZM51.2271 45.8137L49.2868 38.2426L53.586 33.9509L60.9745 36.0738L51.2347 45.8213L51.2271 45.8137ZM36.1534 60.8875L34.2129 53.3164L41.9895 45.5398L49.3781 47.6628L36.1534 60.8875ZM42.1493 43.2037L40.2927 36.7359L46.966 38.3794L42.1493 43.1962V43.2037ZM48.0236 39.5056L49.7281 46.1486L43.2374 44.2842L48.0236 39.4981V39.5056ZM48.2443 37.1088L40.6807 35.2446L50.3978 25.5275L52.4978 32.8553L48.2443 37.1088ZM38.8014 37.1163L40.9014 44.4441L33.1628 52.1826L25.5994 50.3184L38.8014 37.1163ZM59.3766 26.9886L61.3169 34.5596L53.9817 32.4519L51.8815 25.1394L59.3766 26.9886ZM24.458 49.1921L22.5175 41.621L25.3178 38.8208L32.7063 40.9438L24.458 49.1921ZM25.4775 36.4848L23.6209 30.017L30.2942 31.6606L25.4775 36.4772V36.4848ZM33.0564 39.4372L26.5657 37.5729L31.3519 32.7867L33.0564 39.4295V39.4372ZM24.2373 37.7327L21.4751 40.4949L13.9116 38.6306L22.1371 30.405L24.2373 37.7327ZM15.5323 13.7104L17.6325 21.0382L9.82544 28.8452L2.26188 26.9809L15.5323 13.7104ZM27.0603 2.18246L29.1605 9.51014L24.9754 13.6953L17.4118 11.831L27.0603 2.18246ZM27.9582 22.4001L26.0178 14.8366L30.2485 10.6059L37.637 12.7212L27.9582 22.4001ZM18.8804 19.7978L17.0238 13.33L23.697 14.9735L18.8804 19.7902V19.7978ZM24.7547 16.0997L26.4592 22.7425L19.9761 20.8783L24.7623 16.0921L24.7547 16.0997ZM18.7282 22.1262L26.1168 24.2416L12.8235 37.5349L10.8831 29.9713L18.7282 22.1262ZM36.0391 3.65866L37.9794 11.2298L30.6442 9.12207L28.5441 1.80961L36.0391 3.65866ZM1.88143 28.4799L8.55471 30.1234L3.73808 34.9402L1.88143 28.4722V28.4799ZM4.82619 36.0358L9.61238 31.2496L11.3168 37.8926L4.8338 36.0283L4.82619 36.0358ZM15.6236 47.4421L13.5236 40.1296L21.0186 41.9787L22.9589 49.5498L15.6236 47.4421ZM25.2188 51.8174L31.8922 53.4609L27.0756 58.2775L25.2188 51.8097V51.8174ZM28.1636 59.3733L32.9498 54.5871L34.6543 61.2299L28.1636 59.3657V59.3733Z" fill="url(#paint0_linear_805_672)"/>
<defs>
<linearGradient id="paint0_linear_805_672" x1="4.37724" y1="41.4612" x2="59.0799" y2="21.5479" gradientUnits="userSpaceOnUse">
<stop stop-color="#29BCFA"/>
<stop offset="0.43" stop-color="#6464E4"/>
<stop offset="1" stop-color="#B45AFA"/>
</linearGradient>
</defs>
</svg>
