<svg width="44" height="44" viewBox="0 0 44 44" fill="none" xmlns="http://www.w3.org/2000/svg">
<g clip-path="url(#clip0_12317_6990)">
<rect width="44" height="44" rx="8" fill="white"/>
<g clip-path="url(#clip1_12317_6990)">
<path d="M29.3282 25.7453C28.8946 24.9984 28.2501 22.8852 28.2501 20.125C28.2501 18.4674 27.5916 16.8777 26.4195 15.7056C25.2474 14.5335 23.6577 13.875 22.0001 13.875C20.3425 13.875 18.7528 14.5335 17.5807 15.7056C16.4086 16.8777 15.7501 18.4674 15.7501 20.125C15.7501 22.8859 15.1048 24.9984 14.6712 25.7453C14.5604 25.9352 14.5017 26.1509 14.501 26.3707C14.5002 26.5905 14.5574 26.8066 14.6669 26.9973C14.7763 27.1879 14.934 27.3463 15.1242 27.4565C15.3144 27.5667 15.5303 27.6248 15.7501 27.625H18.9384C19.0825 28.3306 19.466 28.9647 20.0239 29.4201C20.5818 29.8756 21.2799 30.1243 22.0001 30.1243C22.7202 30.1243 23.4183 29.8756 23.9762 29.4201C24.5341 28.9647 24.9176 28.3306 25.0618 27.625H28.2501C28.4698 27.6247 28.6856 27.5665 28.8757 27.4562C29.0657 27.346 29.2234 27.1875 29.3327 26.9969C29.442 26.8063 29.4992 26.5903 29.4984 26.3705C29.4976 26.1508 29.4389 25.9351 29.3282 25.7453ZM22.0001 28.875C21.6124 28.8749 21.2344 28.7546 20.9179 28.5308C20.6014 28.3069 20.3621 27.9905 20.2329 27.625H23.7673C23.638 27.9905 23.3987 28.3069 23.0823 28.5308C22.7658 28.7546 22.3877 28.8749 22.0001 28.875Z" fill="#185BF4"/>
</g>
</g>
<defs>
<clipPath id="clip0_12317_6990">
<rect width="44" height="44" rx="8" fill="white"/>
</clipPath>
<clipPath id="clip1_12317_6990">
<rect width="20" height="20" fill="white" transform="translate(12 12)"/>
</clipPath>
</defs>
</svg>
