<svg width="20" height="20" viewBox="0 0 20 20" fill="none" xmlns="http://www.w3.org/2000/svg">
<path d="M11.0454 5.05347L11.9048 4.19409C12.243 3.85577 12.6446 3.5874 13.0865 3.4043C13.5285 3.2212 14.0022 3.12695 14.4806 3.12695C14.9589 3.12695 15.4326 3.2212 15.8746 3.4043C16.3166 3.5874 16.7181 3.85577 17.0563 4.19409C17.3947 4.53231 17.663 4.93387 17.8461 5.37583C18.0292 5.81779 18.1235 6.29149 18.1235 6.76987C18.1235 7.24826 18.0292 7.72196 17.8461 8.16392C17.663 8.60587 17.3947 9.00743 17.0563 9.34565L15.1516 11.2503L14.3438 12.0582C14.0052 12.3968 13.6031 12.6654 13.1606 12.8485C12.7181 13.0317 12.2438 13.1257 11.7649 13.1254C11.286 13.125 10.8118 13.0302 10.3696 12.8464C9.92735 12.6626 9.52569 12.3934 9.18758 12.0542C8.83762 11.7044 8.56285 11.2867 8.38014 10.8269C8.19743 10.367 8.11063 9.87465 8.12508 9.38003" stroke="#2CB3FF" stroke-width="1.4" stroke-linecap="round" stroke-linejoin="round"/>
<path d="M8.95461 14.9468L8.09524 15.8062C7.75662 16.1449 7.35455 16.4135 6.91202 16.5966C6.4695 16.7797 5.99522 16.8738 5.5163 16.8734C5.03739 16.873 4.56324 16.7783 4.121 16.5945C3.67875 16.4107 3.27709 16.1415 2.93899 15.8023C2.25773 15.1187 1.87559 14.1926 1.87647 13.2275C1.87735 12.2624 2.26117 11.337 2.94367 10.6546L5.65617 7.94214C5.9944 7.60382 6.39595 7.33545 6.83791 7.15234C7.27987 6.96924 7.75357 6.875 8.23195 6.875C8.71034 6.875 9.18404 6.96924 9.626 7.15234C10.068 7.33545 10.4695 7.60382 10.8077 7.94214C11.1591 8.29195 11.4351 8.71006 11.6187 9.17068C11.8022 9.63129 11.8894 10.1246 11.8749 10.6203" stroke="#2CB3FF" stroke-width="1.4" stroke-linecap="round" stroke-linejoin="round"/>
</svg>
