<svg width="26" height="26" viewBox="0 0 26 26" fill="none" xmlns="http://www.w3.org/2000/svg">
<g id="upload-cloud">
<path id="Icon" d="M17.3329 17.3334L12.9996 13M12.9996 13L8.66626 17.3334M12.9996 13V22.75M22.0888 19.9225C23.1454 19.3465 23.9801 18.435 24.4611 17.3319C24.9422 16.2288 25.0422 14.9969 24.7453 13.8306C24.4485 12.6644 23.7717 11.6302 22.8218 10.8913C21.8719 10.1524 20.703 9.75082 19.4996 9.75002H18.1346C17.8067 8.4817 17.1955 7.30422 16.347 6.3061C15.4986 5.30798 14.4348 4.51519 13.2359 3.98735C12.0369 3.4595 10.7339 3.21033 9.42472 3.25856C8.11558 3.3068 6.83441 3.65118 5.67753 4.26583C4.52065 4.88047 3.51816 5.74938 2.74543 6.80724C1.9727 7.86509 1.44984 9.08435 1.21615 10.3734C0.982466 11.6624 1.04404 12.9876 1.39624 14.2494C1.74844 15.5112 2.3821 16.6767 3.24959 17.6584" stroke="#185BF4" stroke-width="1.6" stroke-linecap="round" stroke-linejoin="round"/>
</g>
</svg>
