<svg width="10" height="10" viewBox="0 0 10 10" fill="none" xmlns="http://www.w3.org/2000/svg">
<g id="Sparkle" clip-path="url(#clip0_13304_2783)">
<path id="Vector" d="M8.12463 5.625C8.12543 5.75242 8.08671 5.87695 8.01382 5.98145C7.94093 6.08596 7.83745 6.16532 7.7176 6.20859L5.70276 6.95312L4.96057 8.96953C4.91662 9.08893 4.8371 9.19198 4.73274 9.26477C4.62839 9.33756 4.50421 9.37659 4.37698 9.37659C4.24974 9.37659 4.12557 9.33756 4.02121 9.26477C3.91686 9.19198 3.83734 9.08893 3.79339 8.96953L3.04651 6.95312L1.0301 6.21094C0.910701 6.16699 0.807653 6.08747 0.734864 5.98311C0.662074 5.87875 0.623047 5.75458 0.623047 5.62734C0.623047 5.50011 0.662074 5.37594 0.734864 5.27158C0.807653 5.16722 0.910701 5.0877 1.0301 5.04375L3.04651 4.29688L3.7887 2.28047C3.83265 2.16107 3.91217 2.05802 4.01653 1.98523C4.12088 1.91244 4.24506 1.87341 4.37229 1.87341C4.49953 1.87341 4.6237 1.91244 4.72806 1.98523C4.83241 2.05802 4.91193 2.16107 4.95588 2.28047L5.70276 4.29688L7.71917 5.03906C7.8391 5.08273 7.94251 5.16255 8.01514 5.26751C8.08777 5.37246 8.12603 5.49737 8.12463 5.625ZM5.93713 1.875H6.56213V2.5C6.56213 2.58288 6.59506 2.66237 6.65366 2.72097C6.71227 2.77958 6.79175 2.8125 6.87463 2.8125C6.95751 2.8125 7.037 2.77958 7.09561 2.72097C7.15421 2.66237 7.18713 2.58288 7.18713 2.5V1.875H7.81213C7.89501 1.875 7.9745 1.84208 8.03311 1.78347C8.09171 1.72487 8.12463 1.64538 8.12463 1.5625C8.12463 1.47962 8.09171 1.40013 8.03311 1.34153C7.9745 1.28292 7.89501 1.25 7.81213 1.25H7.18713V0.625C7.18713 0.54212 7.15421 0.462634 7.09561 0.404029C7.037 0.345424 6.95751 0.3125 6.87463 0.3125C6.79175 0.3125 6.71227 0.345424 6.65366 0.404029C6.59506 0.462634 6.56213 0.54212 6.56213 0.625V1.25H5.93713C5.85425 1.25 5.77477 1.28292 5.71616 1.34153C5.65756 1.40013 5.62463 1.47962 5.62463 1.5625C5.62463 1.64538 5.65756 1.72487 5.71616 1.78347C5.77477 1.84208 5.85425 1.875 5.93713 1.875ZM9.37463 3.125H9.06213V2.8125C9.06213 2.72962 9.02921 2.65013 8.97061 2.59153C8.912 2.53292 8.83251 2.5 8.74963 2.5C8.66675 2.5 8.58727 2.53292 8.52866 2.59153C8.47006 2.65013 8.43713 2.72962 8.43713 2.8125V3.125H8.12463C8.04175 3.125 7.96227 3.15792 7.90366 3.21653C7.84506 3.27513 7.81213 3.35462 7.81213 3.4375C7.81213 3.52038 7.84506 3.59987 7.90366 3.65847C7.96227 3.71708 8.04175 3.75 8.12463 3.75H8.43713V4.0625C8.43713 4.14538 8.47006 4.22487 8.52866 4.28347C8.58727 4.34208 8.66675 4.375 8.74963 4.375C8.83251 4.375 8.912 4.34208 8.97061 4.28347C9.02921 4.22487 9.06213 4.14538 9.06213 4.0625V3.75H9.37463C9.45751 3.75 9.537 3.71708 9.59561 3.65847C9.65421 3.59987 9.68713 3.52038 9.68713 3.4375C9.68713 3.35462 9.65421 3.27513 9.59561 3.21653C9.537 3.15792 9.45751 3.125 9.37463 3.125Z" fill="#185BF4"/>
</g>
<defs>
<clipPath id="clip0_13304_2783">
<rect width="10" height="10" fill="white"/>
</clipPath>
</defs>
</svg>
